<svg width="281" height="84" viewBox="0 0 281 84" fill="none" xmlns="http://www.w3.org/2000/svg">
<path d="M52.1797 0.789062C56.5547 0.789062 61.0078 1.17969 65.5391 1.96094C69.25 2.58594 71.9062 3.44531 73.5078 4.53906C75.1094 5.63281 75.9102 7.13672 75.9102 9.05078C75.9102 10.2617 75.6172 11.2188 75.0312 11.9219C74.4453 12.5859 73.1758 13.4062 71.2227 14.3828C68.957 15.5547 67.6484 16.9414 67.2969 18.543C66.9844 20.1055 66.6914 26.2383 66.418 36.9414C66.3008 47.293 66.1836 53.5039 66.0664 55.5742C65.9883 57.6445 65.7539 59.6562 65.3633 61.6094C64.2305 67.3125 61.9453 71.7852 58.5078 75.0273C55.6953 77.6836 52.082 79.7734 47.668 81.2969C43.2539 82.8203 38.6055 83.582 33.7227 83.582C29.3867 83.582 25.0312 83.0156 20.6562 81.8828C16.3203 80.75 12.5508 79.1875 9.34766 77.1953C6.69141 75.5547 4.58203 73.3477 3.01953 70.5742C1.45703 67.7617 0.675781 64.7734 0.675781 61.6094C0.675781 57.7031 1.90625 54.4805 4.36719 51.9414C6.82812 49.3633 9.91406 48.0742 13.625 48.0742C17.2578 48.0742 20.3438 49.1484 22.8828 51.2969C25.4219 53.4844 26.6914 56.1797 26.6914 59.3828C26.6914 60.2031 26.457 61.5703 25.9883 63.4844C25.9102 63.875 25.8711 64.3047 25.8711 64.7734C25.8711 66.0234 26.3203 67.0391 27.2188 67.8203C28.1172 68.6016 29.3086 68.9922 30.793 68.9922C33.4102 68.9922 35.5195 67.8203 37.1211 65.4766C38.7227 63.1328 39.5234 60.0469 39.5234 56.2188L39.4648 50.8867L39.3477 36.5312C38.9961 27.8203 38.7227 22.7031 38.5273 21.1797C38.3711 19.6172 37.9414 18.3477 37.2383 17.3711C36.6523 16.5898 36.125 16.082 35.6562 15.8477C35.2266 15.6133 34.0156 15.2422 32.0234 14.7344C31.0859 14.5391 30.2852 13.9922 29.6211 13.0938C28.957 12.1953 28.625 11.2383 28.625 10.2227C28.625 8.11328 29.4453 6.43359 31.0859 5.18359C32.7656 3.89453 35.4805 2.85937 39.2305 2.07812C43.4102 1.21875 47.7266 0.789062 52.1797 0.789062ZM124.074 0.378906C134.113 0.378906 142.883 3.25 150.383 8.99219C155.461 12.9375 159.582 18.0547 162.746 24.3438C165.832 30.5938 167.375 36.8438 167.375 43.0938C167.375 52.3125 164.328 60.5547 158.234 67.8203C153.078 73.9922 146.34 78.4258 138.02 81.1211C132.902 82.7617 127.766 83.582 122.609 83.582C115.852 83.582 109.387 82.1758 103.215 79.3633C95.7539 75.9648 89.9141 70.8281 85.6953 63.9531C81.5938 57.3125 79.543 49.9883 79.543 41.9805C79.543 32.6836 82.1797 24.4805 87.4531 17.3711C92.1406 11.043 98.4492 6.39453 106.379 3.42578C111.691 1.39453 117.59 0.378906 124.074 0.378906ZM118.508 17.1953C115.227 17.1953 112.629 18.6602 110.715 21.5898C109.23 23.7773 108.488 26.375 108.488 29.3828C108.488 33.7969 109.387 38.9141 111.184 44.7344C112.98 50.5156 115.246 55.6523 117.98 60.1445C119.191 62.0586 120.676 63.582 122.434 64.7148C124.23 65.8477 126.047 66.4141 127.883 66.4141C130.852 66.4141 133.234 65.3008 135.031 63.0742C136.867 60.8477 137.785 57.918 137.785 54.2852C137.785 49.5586 137.023 44.4609 135.5 38.9922C133.977 33.5234 132.004 28.8555 129.582 24.9883C128.098 22.6055 126.379 20.7305 124.426 19.3633C122.473 17.9961 120.5 17.2734 118.508 17.1953ZM189.523 0.789062C197.18 0.789062 203.02 1.19922 207.043 2.01953C208.879 2.37109 210.344 3.07422 211.438 4.12891C212.57 5.14453 213.137 6.31641 213.137 7.64453C213.137 8.66016 212.707 9.69531 211.848 10.75C210.598 12.3516 209.973 13.5039 209.973 14.207C209.973 15.6133 211.086 17.8594 213.312 20.9453C214.758 22.9375 216.125 23.9336 217.414 23.9336C218.234 23.9336 219.035 23.6406 219.816 23.0547C220.598 22.4297 221.613 21.3359 222.863 19.7734C224.387 17.8594 225.148 16.3359 225.148 15.2031C225.148 14.5 225.051 13.9727 224.855 13.6211C224.699 13.2695 224.074 12.4297 222.98 11.1016C222.199 10.2031 221.809 8.99219 221.809 7.46875C221.809 3.05469 227.785 0.847656 239.738 0.847656C246.496 0.847656 250.891 1.16016 252.922 1.78516C254.211 2.17578 255.266 2.91797 256.086 4.01172C256.945 5.10547 257.375 6.27734 257.375 7.52734C257.375 9.12891 256.887 10.3398 255.91 11.1602C254.934 11.9805 253.234 12.6055 250.812 13.0352C248.586 13.4648 246.652 14.3242 245.012 15.6133C243.371 16.8633 240.363 19.832 235.988 24.5195C230.676 30.2617 227.355 34.5 226.027 37.2344C224.738 39.9297 224.094 43.9727 224.094 49.3633C224.094 53.8945 224.27 58.0938 224.621 61.9609C224.816 64.3438 225.188 66.0039 225.734 66.9414C226.281 67.8398 227.414 68.7383 229.133 69.6367C231.984 71.1211 233.41 72.9766 233.41 75.2031C233.41 80.5156 225.559 83.1719 209.855 83.1719C203.41 83.1719 197.316 82.5469 191.574 81.2969C186.73 80.2422 184.309 78.1523 184.309 75.0273C184.309 72.6055 185.793 70.8672 188.762 69.8125C190.988 69.0312 192.375 68.0352 192.922 66.8242C194.172 64.1289 194.797 57.7617 194.797 47.7227C194.797 44.5977 194.484 42.1758 193.859 40.457C193.234 38.6992 191.867 36.4336 189.758 33.6602C185.344 27.918 180.793 22.7422 176.105 18.1328C174.074 16.1406 172.121 14.793 170.246 14.0898C167.59 13.1133 165.988 12.3906 165.441 11.9219C164.348 10.9844 163.801 9.73438 163.801 8.17188C163.801 5.55469 165.773 3.67969 169.719 2.54688C173.664 1.375 180.266 0.789062 189.523 0.789062ZM266.574 55.9258C270.285 55.9258 273.508 57.2148 276.242 59.793C279.016 62.4102 280.402 65.7891 280.402 69.9297C280.402 73.7969 279.016 77.0586 276.242 79.7148C273.508 82.293 270.285 83.582 266.574 83.582C262.863 83.582 259.641 82.293 256.906 79.7148C254.133 77.0586 252.746 73.7383 252.746 69.7539C252.746 65.6914 254.133 62.3711 256.906 59.793C259.641 57.2539 262.863 55.9648 266.574 55.9258Z" fill="#E8E8E8"/>
<path d="M65.5391 1.96094L65.3692 2.94641L65.373 2.94705L65.5391 1.96094ZM75.0312 11.9219L75.7811 12.5835L75.7904 12.5729L75.7995 12.5621L75.0312 11.9219ZM71.2227 14.3828L70.7754 13.4883L70.7632 13.4946L71.2227 14.3828ZM67.2969 18.543L66.3201 18.3286L66.3181 18.3377L66.3163 18.3469L67.2969 18.543ZM66.418 36.9414L65.4183 36.9159L65.4181 36.923L65.418 36.9301L66.418 36.9414ZM66.0664 55.5742L65.068 55.5177L65.0675 55.5271L65.0671 55.5365L66.0664 55.5742ZM65.3633 61.6094L64.3827 61.4133L64.3824 61.4146L65.3633 61.6094ZM58.5078 75.0273L57.8217 74.2999L57.8212 74.3003L58.5078 75.0273ZM20.6562 81.8828L20.4035 82.8503L20.4056 82.8509L20.6562 81.8828ZM9.34766 77.1953L9.87579 76.3461L9.87315 76.3445L9.34766 77.1953ZM3.01953 70.5742L2.14536 71.0599L2.14828 71.0651L3.01953 70.5742ZM4.36719 51.9414L5.08528 52.6374L5.09054 52.6319L4.36719 51.9414ZM22.8828 51.2969L23.5355 50.5392L23.5288 50.5335L22.8828 51.2969ZM25.9883 63.4844L25.017 63.2465L25.0119 63.2673L25.0077 63.2883L25.9883 63.4844ZM39.5234 56.2188H40.5235L40.5234 56.2078L39.5234 56.2188ZM39.4648 50.8867L38.4649 50.8949L38.4649 50.8977L39.4648 50.8867ZM39.3477 36.5312L40.3476 36.5231L40.3475 36.507L40.3468 36.4909L39.3477 36.5312ZM38.5273 21.1797L37.5323 21.2792L37.5337 21.293L37.5355 21.3069L38.5273 21.1797ZM37.2383 17.3711L38.0498 16.7868L38.0441 16.7789L38.0383 16.7711L37.2383 17.3711ZM35.6562 15.8477L35.1774 16.7256L35.1931 16.7341L35.209 16.7421L35.6562 15.8477ZM32.0234 14.7344L32.2704 13.7654L32.249 13.7599L32.2274 13.7554L32.0234 14.7344ZM31.0859 5.18359L31.692 5.97903L31.6948 5.9769L31.0859 5.18359ZM39.2305 2.07812L39.0291 1.09861L39.0265 1.09914L39.2305 2.07812ZM52.1797 1.78906C56.4949 1.78906 60.8912 2.17433 65.3692 2.9464L65.709 0.975477C61.1244 0.185042 56.6144 -0.210938 52.1797 -0.210938V1.78906ZM65.373 2.94705C69.0506 3.56644 71.5281 4.39802 72.9439 5.36486L74.0718 3.71326C72.2844 2.4926 69.4494 1.60543 65.7051 0.974826L65.373 2.94705ZM72.9439 5.36486C74.2769 6.27524 74.9102 7.47233 74.9102 9.05078H76.9102C76.9102 6.8011 75.9418 4.99038 74.0718 3.71326L72.9439 5.36486ZM74.9102 9.05078C74.9102 10.104 74.6567 10.8093 74.263 11.2817L75.7995 12.5621C76.5776 11.6282 76.9102 10.4194 76.9102 9.05078H74.9102ZM74.2814 11.2603C73.8386 11.7621 72.7343 12.509 70.7754 13.4884L71.6699 15.2772C73.6173 14.3035 75.052 13.4097 75.7811 12.5835L74.2814 11.2603ZM70.7632 13.4946C68.3807 14.7269 66.764 16.3065 66.3201 18.3286L68.2736 18.7574C68.5329 17.5763 69.5333 16.3825 71.6821 15.271L70.7632 13.4946ZM66.3163 18.3469C66.1421 19.2178 65.9891 21.2266 65.8439 24.2667C65.6969 27.344 65.5551 31.5615 65.4183 36.9159L67.4176 36.9669C67.5543 31.6182 67.6957 27.4177 67.8416 24.3622C67.9894 21.2695 68.1391 19.4306 68.2775 18.7391L66.3163 18.3469ZM65.418 36.9301C65.3007 47.2934 65.1836 53.4758 65.068 55.5177L67.0648 55.6307C67.1836 53.532 67.3008 47.2926 67.4179 36.9527L65.418 36.9301ZM65.0671 55.5365C64.9909 57.5557 64.7625 59.5144 64.3827 61.4133L66.3439 61.8055C66.7453 59.7981 66.9856 57.7333 67.0657 55.6119L65.0671 55.5365ZM64.3824 61.4146C63.2807 66.9615 61.0761 71.2304 57.8217 74.2999L59.194 75.7548C62.8145 72.34 65.1803 67.6635 66.3441 61.8042L64.3824 61.4146ZM57.8212 74.3003C55.1311 76.841 51.6488 78.8651 47.3417 80.3516L47.9942 82.2422C52.5153 80.6818 56.2596 78.5262 59.1944 75.7544L57.8212 74.3003ZM47.3417 80.3516C43.0373 81.8372 38.4996 82.582 33.7227 82.582V84.582C38.7114 84.582 43.4705 83.8035 47.9942 82.2422L47.3417 80.3516ZM33.7227 82.582C29.4748 82.582 25.2035 82.0273 20.9069 80.9147L20.4056 82.8509C24.859 84.004 29.2986 84.582 33.7227 84.582V82.582ZM20.909 80.9153C16.6526 79.8032 12.9793 78.2764 9.87579 76.3462L8.81952 78.0445C12.1222 80.0986 15.9881 81.6968 20.4035 82.8503L20.909 80.9153ZM9.87315 76.3445C7.36364 74.7945 5.372 72.7125 3.89078 70.0834L2.14828 71.0651C3.79206 73.9828 6.01917 76.3149 8.82216 78.0461L9.87315 76.3445ZM3.89369 70.0886C2.41227 67.422 1.67578 64.6005 1.67578 61.6094H-0.324219C-0.324219 64.9464 0.501796 68.1014 2.14537 71.0599L3.89369 70.0886ZM1.67578 61.6094C1.67578 57.9332 2.82481 54.9696 5.08526 52.6374L3.64912 51.2454C0.98769 53.9914 -0.324219 57.473 -0.324219 61.6094H1.67578ZM5.09054 52.6319C7.35423 50.2604 10.1747 49.0742 13.625 49.0742V47.0742C9.65343 47.0742 6.30202 48.4662 3.64383 51.2509L5.09054 52.6319ZM13.625 49.0742C17.0447 49.0742 19.8955 50.0791 22.2369 52.0603L23.5288 50.5335C20.792 48.2178 17.4709 47.0742 13.625 47.0742V49.0742ZM22.2301 52.0545C24.5603 54.0621 25.6914 56.4858 25.6914 59.3828H27.6914C27.6914 55.8736 26.2834 52.9067 23.5355 50.5393L22.2301 52.0545ZM25.6914 59.3828C25.6914 60.07 25.4858 61.3322 25.017 63.2465L26.9596 63.7222C27.4283 61.8085 27.6914 60.3362 27.6914 59.3828H25.6914ZM25.0077 63.2883C24.9146 63.7536 24.8711 64.25 24.8711 64.7734H26.8711C26.8711 64.3593 26.9057 63.9964 26.9689 63.6805L25.0077 63.2883ZM24.8711 64.7734C24.8711 66.2964 25.4336 67.5932 26.5626 68.5749L27.8749 67.0657C27.207 66.4849 26.8711 65.7504 26.8711 64.7734H24.8711ZM26.5626 68.5749C27.6847 69.5506 29.1291 69.9922 30.793 69.9922V67.9922C29.4881 67.9922 28.5497 67.6525 27.8749 67.0657L26.5626 68.5749ZM30.793 69.9922C33.7721 69.9922 36.1774 68.63 37.9467 66.0408L36.2954 64.9124C34.8616 67.0106 33.0482 67.9922 30.793 67.9922V69.9922ZM37.9467 66.0408C39.6953 63.4819 40.5234 60.1795 40.5234 56.2188H38.5234C38.5234 59.9142 37.75 62.7837 36.2954 64.9124L37.9467 66.0408ZM40.5234 56.2078L40.4648 50.8757L38.4649 50.8977L38.5235 56.2297L40.5234 56.2078ZM40.4648 50.8786L40.3476 36.5231L38.3477 36.5394L38.4649 50.8949L40.4648 50.8786ZM40.3468 36.4909C39.9963 27.8059 39.7216 22.6311 39.5192 21.0525L37.5355 21.3069C37.7237 22.7752 37.9959 27.8347 38.3485 36.5716L40.3468 36.4909ZM39.5224 21.0802C39.3538 19.3947 38.8824 17.9431 38.0498 16.7868L36.4267 17.9554C37.0004 18.7522 37.3884 19.8397 37.5323 21.2792L39.5224 21.0802ZM38.0383 16.7711C37.4263 15.9552 36.785 15.294 36.1035 14.9532L35.209 16.7421C35.465 16.8701 35.8783 17.2245 36.4383 17.9711L38.0383 16.7711ZM36.1351 14.9698C35.8201 14.7979 35.3186 14.6213 34.7188 14.4374C34.0917 14.2453 33.2738 14.0211 32.2704 13.7654L31.7764 15.7034C32.7653 15.9555 33.5489 16.1707 34.1328 16.3497C34.7439 16.537 35.0628 16.663 35.1774 16.7256L36.1351 14.9698ZM32.2274 13.7554C31.5698 13.6184 30.9691 13.2352 30.4253 12.4994L28.8169 13.6881C29.6012 14.7492 30.6021 15.4597 31.8195 15.7134L32.2274 13.7554ZM30.4253 12.4994C29.875 11.7549 29.625 11.0028 29.625 10.2227H27.625C27.625 11.4738 28.0391 12.6358 28.8169 13.6881L30.4253 12.4994ZM29.625 10.2227C29.625 8.41706 30.3061 7.0349 31.692 5.97903L30.4799 4.38816C28.5845 5.83229 27.625 7.8095 27.625 10.2227H29.625ZM31.6948 5.9769C33.1942 4.82619 35.7311 3.82864 39.4344 3.05711L39.0265 1.09914C35.2299 1.89011 32.3371 2.96288 30.4771 4.39028L31.6948 5.9769ZM39.4319 3.05764C43.5425 2.21246 47.7913 1.78906 52.1797 1.78906V-0.210938C47.6619 -0.210938 43.2778 0.225036 39.0291 1.09861L39.4319 3.05764ZM150.383 8.99219L150.996 8.20249L150.991 8.19818L150.383 8.99219ZM162.746 24.3438L163.643 23.901L163.639 23.8943L162.746 24.3438ZM158.234 67.8203L157.468 67.1777L157.467 67.1792L158.234 67.8203ZM138.02 81.1211L138.325 82.0734L138.328 82.0724L138.02 81.1211ZM103.215 79.3633L103.63 78.4533L103.629 78.4532L103.215 79.3633ZM85.6953 63.9531L86.5476 63.4301L86.5461 63.4276L85.6953 63.9531ZM87.4531 17.3711L88.2563 17.9668L88.2567 17.9663L87.4531 17.3711ZM106.379 3.42578L106.73 4.36232L106.736 4.35983L106.379 3.42578ZM118.508 17.1953L118.547 16.1961L118.527 16.1953H118.508V17.1953ZM110.715 21.5898L111.542 22.1513L111.547 22.1441L111.552 22.1368L110.715 21.5898ZM111.184 44.7344L110.228 45.0294L110.229 45.0312L111.184 44.7344ZM117.98 60.1445L117.126 60.6645L117.131 60.6719L117.135 60.6792L117.98 60.1445ZM122.434 64.7148L121.892 65.5555L121.9 65.5608L122.434 64.7148ZM135.031 63.0742L134.26 62.438L134.253 62.4462L135.031 63.0742ZM129.582 24.9883L128.733 25.517L128.735 25.519L129.582 24.9883ZM124.426 19.3633L123.852 20.1825L124.426 19.3633ZM124.074 1.37891C133.908 1.37891 142.461 4.1863 149.775 9.78619L150.991 8.19818C143.305 2.3137 134.318 -0.621094 124.074 -0.621094V1.37891ZM149.769 9.78187C154.719 13.6276 158.749 18.6242 161.853 24.7932L163.639 23.8943C160.415 17.4852 156.203 12.2474 150.996 8.20251L149.769 9.78187ZM161.849 24.7865C164.875 30.9148 166.375 37.0142 166.375 43.0938H168.375C168.375 36.6733 166.789 30.2727 163.643 23.901L161.849 24.7865ZM166.375 43.0938C166.375 52.0702 163.416 60.0865 157.468 67.1777L159.001 68.4629C165.241 61.0228 168.375 52.5548 168.375 43.0938H166.375ZM157.467 67.1792C152.442 73.1938 145.869 77.5272 137.711 80.1698L138.328 82.0724C146.811 79.3243 153.714 74.7905 159.002 68.4615L157.467 67.1792ZM137.714 80.1688C132.692 81.7792 127.658 82.582 122.609 82.582V84.582C127.874 84.582 133.113 83.7443 138.325 82.0733L137.714 80.1688ZM122.609 82.582C115.995 82.582 109.672 81.2067 103.63 78.4533L102.8 80.2733C109.102 83.1449 115.708 84.582 122.609 84.582V82.582ZM103.629 78.4532C96.3465 75.1359 90.6604 70.1324 86.5476 63.4301L84.843 64.4761C89.1677 71.5238 95.1613 76.7938 102.8 80.2733L103.629 78.4532ZM86.5461 63.4276C82.5447 56.9492 80.543 49.8077 80.543 41.9805H78.543C78.543 50.1688 80.6428 57.6758 84.8445 64.4786L86.5461 63.4276ZM80.543 41.9805C80.543 32.8866 83.1174 24.8949 88.2563 17.9668L86.65 16.7753C81.242 24.0661 78.543 32.4806 78.543 41.9805H80.543ZM88.2567 17.9663C92.8206 11.805 98.9664 7.2687 106.73 4.3623L106.028 2.48926C97.9321 5.52037 91.4607 10.2809 86.6496 16.7759L88.2567 17.9663ZM106.736 4.35983C111.92 2.37784 117.695 1.37891 124.074 1.37891V-0.621094C117.485 -0.621094 111.463 0.411221 106.022 2.49173L106.736 4.35983ZM118.508 16.1953C114.863 16.1953 111.962 17.853 109.878 21.0429L111.552 22.1368C113.296 19.4673 115.59 18.1953 118.508 18.1953V16.1953ZM109.887 21.0283C108.276 23.4036 107.488 26.2033 107.488 29.3828H109.488C109.488 26.5467 110.185 24.1511 111.542 22.1513L109.887 21.0283ZM107.488 29.3828C107.488 33.9268 108.412 39.147 110.228 45.0294L112.139 44.4394C110.361 38.6811 109.488 33.667 109.488 29.3828H107.488ZM110.229 45.0312C112.046 50.8791 114.343 56.0927 117.126 60.6645L118.835 59.6246C116.149 55.212 113.915 50.1521 112.139 44.4376L110.229 45.0312ZM117.135 60.6792C118.417 62.7057 120.002 64.3375 121.892 65.5554L122.975 63.8743C121.35 62.8266 119.965 61.4115 118.826 59.6099L117.135 60.6792ZM121.9 65.5608C123.831 66.7781 125.83 67.4141 127.883 67.4141V65.4141C126.264 65.4141 124.63 64.9172 122.967 63.8689L121.9 65.5608ZM127.883 67.4141C131.141 67.4141 133.815 66.1741 135.809 63.7022L134.253 62.4462C132.654 64.4275 130.562 65.4141 127.883 65.4141V67.4141ZM135.803 63.7104C137.821 61.2624 138.785 58.0885 138.785 54.2852H136.785C136.785 57.7474 135.913 60.433 134.26 62.438L135.803 63.7104ZM138.785 54.2852C138.785 49.4519 138.006 44.263 136.463 38.7238L134.537 39.2605C136.04 44.6588 136.785 49.6653 136.785 54.2852H138.785ZM136.463 38.7238C134.92 33.1841 132.913 28.4232 130.43 24.4575L128.735 25.519C131.095 29.2878 133.033 33.8628 134.537 39.2605L136.463 38.7238ZM130.431 24.4595C128.888 21.9823 127.081 20.001 124.999 18.544L123.852 20.1825C125.677 21.46 127.308 23.2286 128.733 25.517L130.431 24.4595ZM124.999 18.544C122.92 17.0887 120.766 16.2831 118.547 16.1961L118.469 18.1945C120.234 18.2638 122.025 18.9035 123.852 20.1825L124.999 18.544ZM207.043 2.01953L206.843 2.99944L206.855 3.00169L207.043 2.01953ZM211.438 4.12891L210.743 4.84875L210.756 4.86135L210.77 4.87348L211.438 4.12891ZM211.848 10.75L211.072 10.1183L211.066 10.1265L211.059 10.1347L211.848 10.75ZM213.312 20.9453L212.502 21.5304L212.503 21.5325L213.312 20.9453ZM219.816 23.0547L220.416 23.8547L220.429 23.8453L220.441 23.8356L219.816 23.0547ZM222.863 19.7734L223.644 20.3981L223.646 20.3962L222.863 19.7734ZM224.855 13.6211L223.942 14.0272L223.96 14.0679L223.981 14.1067L224.855 13.6211ZM222.98 11.1016L223.752 10.4659L223.744 10.4555L223.735 10.4454L222.98 11.1016ZM252.922 1.78516L252.628 2.74094L252.632 2.74218L252.922 1.78516ZM256.086 4.01172L255.286 4.61172L255.293 4.62071L255.3 4.62954L256.086 4.01172ZM250.812 13.0352L250.638 12.0505L250.63 12.0518L250.623 12.0533L250.812 13.0352ZM245.012 15.6133L245.618 16.4087L245.624 16.4042L245.63 16.3996L245.012 15.6133ZM235.988 24.5195L235.257 23.8372L235.254 23.8404L235.988 24.5195ZM226.027 37.2344L225.128 36.7975L225.125 36.8029L226.027 37.2344ZM224.621 61.9609L225.618 61.8792L225.617 61.8704L224.621 61.9609ZM225.734 66.9414L224.871 67.4453L224.875 67.4534L224.88 67.4614L225.734 66.9414ZM229.133 69.6367L228.67 70.5229L228.671 70.5237L229.133 69.6367ZM191.574 81.2969L191.361 82.274L191.362 82.274L191.574 81.2969ZM188.762 69.8125L188.431 68.8689L188.427 68.8702L188.762 69.8125ZM192.922 66.8242L192.015 66.4035L192.011 66.4126L192.922 66.8242ZM193.859 40.457L192.917 40.792L192.92 40.7988L193.859 40.457ZM189.758 33.6602L190.554 33.0548L190.551 33.0507L189.758 33.6602ZM176.105 18.1328L176.807 17.4198L176.806 17.4189L176.105 18.1328ZM170.246 14.0898L170.597 13.1535L170.591 13.1513L170.246 14.0898ZM169.719 2.54688L169.995 3.50808L170.003 3.50548L169.719 2.54688ZM189.523 1.78906C197.16 1.78906 202.919 2.19939 206.843 2.99937L207.243 1.03969C203.12 0.199052 197.2 -0.210938 189.523 -0.210938V1.78906ZM206.855 3.00169C208.544 3.3252 209.818 3.95684 210.743 4.84875L212.132 3.40906C210.869 2.1916 209.213 1.41699 207.231 1.03738L206.855 3.00169ZM210.77 4.87348C211.725 5.72993 212.137 6.64327 212.137 7.64453H214.137C214.137 5.98954 213.415 4.55913 212.105 3.38434L210.77 4.87348ZM212.137 7.64453C212.137 8.36231 211.836 9.18137 211.072 10.1183L212.623 11.3817C213.578 10.2093 214.137 8.958 214.137 7.64453H212.137ZM211.059 10.1347C210.417 10.9582 209.911 11.6951 209.562 12.3387C209.228 12.955 208.973 13.5998 208.973 14.207H210.973C210.973 14.1112 211.03 13.8282 211.32 13.2922C211.596 12.7834 212.029 12.1434 212.636 11.3653L211.059 10.1347ZM208.973 14.207C208.973 15.1416 209.332 16.2213 209.912 17.3904C210.502 18.581 211.371 19.9632 212.502 21.5304L214.123 20.3602C213.028 18.8415 212.227 17.5577 211.704 16.5022C211.17 15.4252 210.973 14.6787 210.973 14.207H208.973ZM212.503 21.5325C213.977 23.5637 215.606 24.9336 217.414 24.9336V22.9336C216.644 22.9336 215.539 22.3113 214.122 20.3581L212.503 21.5325ZM217.414 24.9336C218.49 24.9336 219.496 24.545 220.416 23.8547L219.216 22.2547C218.574 22.7363 217.979 22.9336 217.414 22.9336V24.9336ZM220.441 23.8356C221.312 23.1386 222.384 21.9731 223.644 20.3981L222.082 19.1487C220.842 20.6988 219.883 21.7208 219.192 22.2738L220.441 23.8356ZM223.646 20.3962C224.434 19.4061 225.049 18.487 225.472 17.6425C225.89 16.8059 226.148 15.9832 226.148 15.2031H224.148C224.148 15.5558 224.026 16.0613 223.683 16.7481C223.343 17.4271 222.816 18.2267 222.081 19.1507L223.646 20.3962ZM226.148 15.2031C226.148 14.4402 226.048 13.7088 225.73 13.1355L223.981 14.1067C224.053 14.2365 224.148 14.5598 224.148 15.2031H226.148ZM225.769 13.215C225.64 12.9232 225.378 12.5417 225.072 12.1305C224.745 11.6918 224.304 11.1357 223.752 10.4659L222.209 11.7373C222.751 12.3956 223.169 12.9234 223.467 13.3245C223.617 13.5252 223.731 13.6876 223.814 13.8142C223.855 13.8773 223.886 13.9276 223.909 13.9663C223.92 13.9855 223.928 14.0004 223.934 14.0113C223.94 14.0224 223.942 14.0275 223.942 14.0272L225.769 13.215ZM223.735 10.4454C223.152 9.77512 222.809 8.82024 222.809 7.46875H220.809C220.809 9.16413 221.246 10.6311 222.226 11.7577L223.735 10.4454ZM222.809 7.46875C222.809 6.6156 223.088 5.88806 223.672 5.24207C224.274 4.57481 225.234 3.95922 226.637 3.44101C229.456 2.40008 233.795 1.84766 239.738 1.84766V-0.152344C233.728 -0.152344 229.102 0.39875 225.945 1.56485C224.36 2.15016 223.079 2.91395 222.187 3.90197C221.276 4.91126 220.809 6.11487 220.809 7.46875H222.809ZM239.738 1.84766C243.105 1.84766 245.867 1.92557 248.032 2.07951C250.216 2.23483 251.727 2.46375 252.628 2.74094L253.216 0.829377C252.086 0.481565 250.384 0.241729 248.173 0.0845501C245.944 -0.0740121 243.13 -0.152344 239.738 -0.152344V1.84766ZM252.632 2.74218C253.714 3.0701 254.591 3.68546 255.286 4.61172L256.886 3.41172C255.94 2.15048 254.708 1.28146 253.212 0.828132L252.632 2.74218ZM255.3 4.62954C256.037 5.56813 256.375 6.52676 256.375 7.52734H258.375C258.375 6.02793 257.854 4.64281 256.872 3.3939L255.3 4.62954ZM256.375 7.52734C256.375 8.9155 255.961 9.81123 255.267 10.3945L256.553 11.9259C257.812 10.8685 258.375 9.34231 258.375 7.52734H256.375ZM255.267 10.3945C254.5 11.0388 253.02 11.6279 250.638 12.0505L250.987 14.0198C253.449 13.5831 255.367 12.9222 256.553 11.9259L255.267 10.3945ZM250.623 12.0533C248.254 12.5105 246.17 13.4312 244.394 14.827L245.63 16.3996C247.134 15.2173 248.918 14.4192 251.002 14.017L250.623 12.0533ZM244.406 14.8178C242.686 16.1281 239.621 19.1619 235.257 23.8372L236.719 25.2018C241.106 20.5022 244.056 17.5984 245.618 16.4087L244.406 14.8178ZM235.254 23.8404C229.948 29.5761 226.529 33.9131 225.128 36.7975L226.927 37.6713C228.182 35.0869 231.404 30.9473 236.722 25.1986L235.254 23.8404ZM225.125 36.8029C223.739 39.7015 223.094 43.9248 223.094 49.3633H225.094C225.094 44.0205 225.738 40.1578 226.929 37.6658L225.125 36.8029ZM223.094 49.3633C223.094 53.9199 223.27 58.1497 223.625 62.0515L225.617 61.8704C225.269 58.0378 225.094 53.8691 225.094 49.3633H223.094ZM223.624 62.0426C223.821 64.4369 224.201 66.2973 224.871 67.4453L226.598 66.4375C226.174 65.7106 225.812 64.2506 225.618 61.8792L223.624 62.0426ZM224.88 67.4614C225.572 68.598 226.905 69.6008 228.67 70.5229L229.596 68.7505C227.923 67.8758 226.99 67.0817 226.589 66.4215L224.88 67.4614ZM228.671 70.5237C231.357 71.922 232.41 73.5048 232.41 75.2031H234.41C234.41 72.4483 232.612 70.3202 229.595 68.7497L228.671 70.5237ZM232.41 75.2031C232.41 77.2038 230.988 78.9513 227.201 80.2324C223.433 81.507 217.677 82.1719 209.855 82.1719V84.1719C217.737 84.1719 223.758 83.5086 227.842 82.1269C231.907 80.7518 234.41 78.515 234.41 75.2031H232.41ZM209.855 82.1719C203.475 82.1719 197.453 81.5532 191.787 80.3198L191.362 82.274C197.18 83.5406 203.345 84.1719 209.855 84.1719V82.1719ZM191.787 80.3198C189.447 79.8102 187.812 79.0735 186.778 78.1814C185.782 77.3213 185.309 76.2913 185.309 75.0273H183.309C183.309 76.8884 184.047 78.4658 185.472 79.6956C186.86 80.8933 188.858 81.7289 191.361 82.274L191.787 80.3198ZM185.309 75.0273C185.309 74.0391 185.604 73.2334 186.182 72.5566C186.776 71.8618 187.718 71.2447 189.096 70.7548L188.427 68.8702C186.837 69.435 185.552 70.2144 184.661 71.2578C183.755 72.3194 183.309 73.5937 183.309 75.0273H185.309ZM189.093 70.7561C191.392 69.9493 193.113 68.8312 193.833 67.2358L192.011 66.4126C191.637 67.2391 190.584 68.1132 188.431 68.8689L189.093 70.7561ZM193.829 67.2449C194.53 65.7332 195.01 63.3218 195.323 60.125C195.64 56.8962 195.797 52.7587 195.797 47.7227H193.797C193.797 52.7256 193.641 56.7913 193.333 59.9297C193.022 63.1001 192.564 65.22 192.015 66.4035L193.829 67.2449ZM195.797 47.7227C195.797 44.5516 195.483 41.9945 194.799 40.1153L192.92 40.7988C193.486 42.3571 193.797 44.6437 193.797 47.7227H195.797ZM194.802 40.122C194.124 38.2164 192.681 35.8521 190.554 33.0548L188.962 34.2655C191.053 37.015 192.345 39.1821 192.917 40.792L194.802 40.122ZM190.551 33.0507C186.111 27.2756 181.53 22.0646 176.807 17.4198L175.404 18.8458C180.056 23.4198 184.576 28.5604 188.965 34.2696L190.551 33.0507ZM176.806 17.4189C174.714 15.3671 172.646 13.9217 170.597 13.1535L169.895 15.0262C171.597 15.6643 173.435 16.9141 175.405 18.8468L176.806 17.4189ZM170.591 13.1513C169.274 12.6669 168.234 12.2514 167.464 11.9039C166.661 11.5416 166.245 11.2936 166.092 11.1626L164.791 12.6811C165.185 13.0189 165.843 13.3666 166.641 13.7269C167.473 14.1021 168.562 14.5362 169.901 15.0284L170.591 13.1513ZM166.092 11.1626C165.24 10.4326 164.801 9.47041 164.801 8.17188H162.801C162.801 9.99834 163.455 11.5362 164.791 12.6811L166.092 11.1626ZM164.801 8.17188C164.801 7.14936 165.173 6.28474 165.969 5.52755C166.795 4.74305 168.105 4.05072 169.995 3.50804L169.443 1.58571C167.387 2.17585 165.739 2.98742 164.591 4.07791C163.415 5.19573 162.801 6.5772 162.801 8.17188H164.801ZM170.003 3.50548C173.798 2.37836 180.272 1.78906 189.523 1.78906V-0.210938C180.259 -0.210938 173.53 0.371644 169.434 1.58827L170.003 3.50548ZM266.574 55.9258V54.9257L266.564 54.9258L266.574 55.9258ZM276.242 59.793L276.929 59.0657L276.928 59.0654L276.242 59.793ZM276.242 79.7148L276.928 80.4425L276.934 80.437L276.242 79.7148ZM256.906 79.7148L256.215 80.4371L256.22 80.4424L256.906 79.7148ZM256.906 59.793L256.226 59.0602L256.225 59.0605L256.906 59.793ZM266.574 56.9258C270.027 56.9258 273.005 58.1149 275.556 60.5206L276.928 59.0654C274.011 56.3148 270.544 54.9258 266.574 54.9258V56.9258ZM275.556 60.5203C278.111 62.9312 279.402 66.038 279.402 69.9297H281.402C281.402 65.5401 279.921 61.8891 276.929 59.0657L275.556 60.5203ZM279.402 69.9297C279.402 73.5263 278.125 76.5265 275.551 78.9926L276.934 80.437C279.906 77.5907 281.402 74.0674 281.402 69.9297H279.402ZM275.556 78.9873C273.005 81.3929 270.027 82.582 266.574 82.582V84.582C270.544 84.582 274.011 83.193 276.928 80.4424L275.556 78.9873ZM266.574 82.582C263.122 82.582 260.144 81.3929 257.592 78.9873L256.22 80.4424C259.138 83.193 262.605 84.582 266.574 84.582V82.582ZM257.598 78.9926C255.03 76.5328 253.746 73.4771 253.746 69.7539H251.746C251.746 73.9995 253.236 77.5844 256.215 80.437L257.598 78.9926ZM253.746 69.7539C253.746 65.9466 255.033 62.8994 257.587 60.5254L256.225 59.0605C253.232 61.8428 251.746 65.4362 251.746 69.7539H253.746ZM257.587 60.5258C260.14 58.155 263.124 56.9622 266.585 56.9257L266.564 54.9258C262.602 54.9675 259.141 56.3529 256.226 59.0602L257.587 60.5258Z" fill="#556BFF"/>
</svg>
