<svg width="421" height="126" viewBox="0 0 421 126" fill="none" xmlns="http://www.w3.org/2000/svg">
<path d="M77.7695 1.18359C84.332 1.18359 91.0117 1.76953 97.8086 2.94141C103.375 3.87891 107.359 5.16797 109.762 6.80859C112.164 8.44922 113.365 10.7051 113.365 13.5762C113.365 15.3926 112.926 16.8281 112.047 17.8828C111.168 18.8789 109.264 20.1094 106.334 21.5742C102.936 23.332 100.973 25.4121 100.445 27.8145C99.9766 30.1582 99.5371 39.3574 99.127 55.4121C98.9512 70.9395 98.7754 80.2559 98.5996 83.3613C98.4824 86.4668 98.1309 89.4844 97.5449 92.4141C95.8457 100.969 92.418 107.678 87.2617 112.541C83.043 116.525 77.623 119.66 71.002 121.945C64.3809 124.23 57.4082 125.373 50.084 125.373C43.5801 125.373 37.0469 124.523 30.4844 122.824C23.9805 121.125 18.3262 118.781 13.5215 115.793C9.53711 113.332 6.37305 110.021 4.0293 105.861C1.68555 101.643 0.513672 97.1602 0.513672 92.4141C0.513672 86.5547 2.35938 81.7207 6.05078 77.9121C9.74219 74.0449 14.3711 72.1113 19.9375 72.1113C25.3867 72.1113 30.0156 73.7227 33.8242 76.9453C37.6328 80.2266 39.5371 84.2695 39.5371 89.0742C39.5371 90.3047 39.1855 92.3555 38.4824 95.2266C38.3652 95.8125 38.3066 96.457 38.3066 97.1602C38.3066 99.0352 38.9805 100.559 40.3281 101.73C41.6758 102.902 43.4629 103.488 45.6895 103.488C49.6152 103.488 52.7793 101.73 55.1816 98.2148C57.584 94.6992 58.7852 90.0703 58.7852 84.3281L58.6973 76.3301L58.5215 54.7969C57.9941 41.7305 57.584 34.0547 57.291 31.7695C57.0566 29.4258 56.4121 27.5215 55.3574 26.0566C54.4785 24.8848 53.6875 24.123 52.9844 23.7715C52.3398 23.4199 50.5234 22.8633 47.5352 22.1016C46.1289 21.8086 44.9277 20.9883 43.9316 19.6406C42.9355 18.293 42.4375 16.8574 42.4375 15.334C42.4375 12.1699 43.668 9.65039 46.1289 7.77539C48.6484 5.8418 52.7207 4.28906 58.3457 3.11719C64.6152 1.82812 71.0898 1.18359 77.7695 1.18359ZM185.611 0.568359C200.67 0.568359 213.824 4.875 225.074 13.4883C232.691 19.4062 238.873 27.082 243.619 36.5156C248.248 45.8906 250.562 55.2656 250.562 64.6406C250.562 78.4688 245.992 90.832 236.852 101.73C229.117 110.988 219.01 117.639 206.529 121.682C198.854 124.143 191.148 125.373 183.414 125.373C173.277 125.373 163.58 123.264 154.322 119.045C143.131 113.947 134.371 106.242 128.043 95.9297C121.891 85.9688 118.814 74.9824 118.814 62.9707C118.814 49.0254 122.77 36.7207 130.68 26.0566C137.711 16.5645 147.174 9.5918 159.068 5.13867C167.037 2.0918 175.885 0.568359 185.611 0.568359ZM177.262 25.793C172.34 25.793 168.443 27.9902 165.572 32.3848C163.346 35.666 162.232 39.5625 162.232 44.0742C162.232 50.6953 163.58 58.3711 166.275 67.1016C168.971 75.7734 172.369 83.4785 176.471 90.2168C178.287 93.0879 180.514 95.373 183.15 97.0723C185.846 98.7715 188.57 99.6211 191.324 99.6211C195.777 99.6211 199.352 97.9512 202.047 94.6113C204.801 91.2715 206.178 86.877 206.178 81.4277C206.178 74.3379 205.035 66.6914 202.75 58.4883C200.465 50.2852 197.506 43.2832 193.873 37.4824C191.646 33.9082 189.068 31.0957 186.139 29.0449C183.209 26.9941 180.25 25.9102 177.262 25.793ZM283.785 1.18359C295.27 1.18359 304.029 1.79883 310.064 3.0293C312.818 3.55664 315.016 4.61133 316.656 6.19336C318.355 7.7168 319.205 9.47461 319.205 11.4668C319.205 12.9902 318.561 14.543 317.271 16.125C315.396 18.5273 314.459 20.2559 314.459 21.3105C314.459 23.4199 316.129 26.7891 319.469 31.418C321.637 34.4062 323.688 35.9004 325.621 35.9004C326.852 35.9004 328.053 35.4609 329.225 34.582C330.396 33.6445 331.92 32.0039 333.795 29.6602C336.08 26.7891 337.223 24.5039 337.223 22.8047C337.223 21.75 337.076 20.959 336.783 20.4316C336.549 19.9043 335.611 18.6445 333.971 16.6523C332.799 15.3047 332.213 13.4883 332.213 11.2031C332.213 4.58203 341.178 1.27148 359.107 1.27148C369.244 1.27148 375.836 1.74023 378.883 2.67773C380.816 3.26367 382.398 4.37695 383.629 6.01758C384.918 7.6582 385.562 9.41602 385.562 11.291C385.562 13.6934 384.83 15.5098 383.365 16.7402C381.9 17.9707 379.352 18.9082 375.719 19.5527C372.379 20.1973 369.479 21.4863 367.018 23.4199C364.557 25.2949 360.045 29.748 353.482 36.7793C345.514 45.3926 340.533 51.75 338.541 55.8516C336.607 59.8945 335.641 65.959 335.641 74.0449C335.641 80.8418 335.904 87.1406 336.432 92.9414C336.725 96.5156 337.281 99.0059 338.102 100.412C338.922 101.76 340.621 103.107 343.199 104.455C347.477 106.682 349.615 109.465 349.615 112.805C349.615 120.773 337.838 124.758 314.283 124.758C304.615 124.758 295.475 123.82 286.861 121.945C279.596 120.363 275.963 117.229 275.963 112.541C275.963 108.908 278.189 106.301 282.643 104.719C285.982 103.547 288.062 102.053 288.883 100.236C290.758 96.1934 291.695 86.6426 291.695 71.584C291.695 66.8965 291.227 63.2637 290.289 60.6855C289.352 58.0488 287.301 54.6504 284.137 50.4902C277.516 41.877 270.689 34.1133 263.658 27.1992C260.611 24.2109 257.682 22.1895 254.869 21.1348C250.885 19.6699 248.482 18.5859 247.662 17.8828C246.021 16.4766 245.201 14.6016 245.201 12.2578C245.201 8.33203 248.16 5.51953 254.078 3.82031C259.996 2.0625 269.898 1.18359 283.785 1.18359ZM399.361 83.8887C404.928 83.8887 409.762 85.8223 413.863 89.6895C418.023 93.6152 420.104 98.6836 420.104 104.895C420.104 110.695 418.023 115.588 413.863 119.572C409.762 123.439 404.928 125.373 399.361 125.373C393.795 125.373 388.961 123.439 384.859 119.572C380.699 115.588 378.619 110.607 378.619 104.631C378.619 98.5371 380.699 93.5566 384.859 89.6895C388.961 85.8809 393.795 83.9473 399.361 83.8887Z" fill="white"/>
<path d="M97.8086 2.94141L97.6387 3.92687L97.6425 3.92752L97.8086 2.94141ZM112.047 17.8828L112.797 18.5444L112.806 18.5338L112.815 18.523L112.047 17.8828ZM106.334 21.5742L105.887 20.6797L105.875 20.686L106.334 21.5742ZM100.445 27.8145L99.4686 27.6L99.4666 27.6092L99.4647 27.6183L100.445 27.8145ZM99.127 55.4121L98.1273 55.3866L98.1271 55.3937L98.127 55.4008L99.127 55.4121ZM98.5996 83.3613L97.6012 83.3048L97.6007 83.3142L97.6003 83.3236L98.5996 83.3613ZM97.5449 92.4141L96.5643 92.2179L96.5641 92.2192L97.5449 92.4141ZM87.2617 112.541L86.5756 111.814L86.5751 111.814L87.2617 112.541ZM30.4844 122.824L30.2316 123.792L30.2337 123.792L30.4844 122.824ZM13.5215 115.793L14.0496 114.944L14.047 114.942L13.5215 115.793ZM4.0293 105.861L3.15512 106.347L3.15805 106.352L4.0293 105.861ZM6.05078 77.9121L6.76887 78.6081L6.77414 78.6026L6.05078 77.9121ZM33.8242 76.9453L34.477 76.1877L34.4702 76.1819L33.8242 76.9453ZM38.4824 95.2266L37.5111 94.9887L37.506 95.0095L37.5018 95.0304L38.4824 95.2266ZM58.7852 84.3281H59.7852L59.7851 84.3171L58.7852 84.3281ZM58.6973 76.3301L57.6973 76.3382L57.6973 76.3411L58.6973 76.3301ZM58.5215 54.7969L59.5215 54.7887L59.5213 54.7726L59.5207 54.7565L58.5215 54.7969ZM57.291 31.7695L56.296 31.869L56.2974 31.8829L56.2991 31.8967L57.291 31.7695ZM55.3574 26.0566L56.169 25.4723L56.1633 25.4644L56.1574 25.4566L55.3574 26.0566ZM52.9844 23.7715L52.5055 24.6494L52.5212 24.6579L52.5372 24.6659L52.9844 23.7715ZM47.5352 22.1016L47.7822 21.1325L47.7607 21.1271L47.7391 21.1226L47.5352 22.1016ZM46.1289 7.77539L46.735 8.57083L46.7377 8.5687L46.1289 7.77539ZM58.3457 3.11719L58.1443 2.13767L58.1417 2.13821L58.3457 3.11719ZM77.7695 2.18359C84.2723 2.18359 90.8951 2.76418 97.6387 3.92687L97.9785 1.95595C91.1283 0.774885 84.3918 0.183594 77.7695 0.183594V2.18359ZM97.6425 3.92752C103.176 4.85941 106.981 6.12068 109.198 7.63439L110.326 5.98279C107.738 4.21526 103.574 2.8984 97.9747 1.95529L97.6425 3.92752ZM109.198 7.63439C111.332 9.09165 112.365 11.0407 112.365 13.5762H114.365C114.365 10.3695 112.997 7.80679 110.326 5.98279L109.198 7.63439ZM112.365 13.5762C112.365 15.2349 111.965 16.4186 111.279 17.2426L112.815 18.523C113.886 17.2376 114.365 15.5503 114.365 13.5762H112.365ZM111.297 17.2212C110.561 18.0551 108.822 19.2121 105.887 20.6798L106.781 22.4686C109.705 21.0067 111.775 19.7027 112.797 18.5444L111.297 17.2212ZM105.875 20.686C102.359 22.5043 100.088 24.7772 99.4686 27.6L101.422 28.0289C101.857 26.047 103.512 24.1598 106.793 22.4624L105.875 20.686ZM99.4647 27.6183C99.2124 28.8799 98.9838 31.8506 98.7653 36.424C98.5451 41.0344 98.3324 47.3564 98.1273 55.3866L100.127 55.4376C100.332 47.4131 100.544 41.1082 100.763 36.5194C100.984 31.8936 101.209 29.0927 101.426 28.0106L99.4647 27.6183ZM98.127 55.4008C97.9511 70.9398 97.7754 80.2278 97.6012 83.3048L99.598 83.4178C99.7754 80.2839 99.9512 70.9391 100.127 55.4234L98.127 55.4008ZM97.6003 83.3236C97.4851 86.378 97.1394 89.3425 96.5643 92.2179L98.5255 92.6102C99.1223 89.6262 99.4798 86.5556 99.5989 83.399L97.6003 83.3236ZM96.5641 92.2192C94.8959 100.618 91.5488 107.123 86.5756 111.814L87.9479 113.268C93.2872 108.233 96.7955 101.32 98.5258 92.6089L96.5641 92.2192ZM86.5751 111.814C82.4787 115.683 77.1898 118.752 70.6757 121L71.3282 122.891C78.0563 120.569 83.6072 117.368 87.9483 113.268L86.5751 111.814ZM70.6757 121C64.1643 123.247 57.3023 124.373 50.084 124.373V126.373C57.5141 126.373 64.5974 125.214 71.3282 122.891L70.6757 121ZM50.084 124.373C43.6682 124.373 37.2191 123.535 30.735 121.856L30.2337 123.792C36.8746 125.512 43.492 126.373 50.084 126.373V124.373ZM30.7372 121.857C24.3127 120.178 18.7547 117.87 14.0496 114.944L12.9933 116.642C17.8976 119.692 23.6482 122.072 30.2316 123.792L30.7372 121.857ZM14.047 114.942C10.2093 112.572 7.16302 109.386 4.90054 105.37L3.15805 106.352C5.58307 110.657 8.86488 114.092 12.996 116.644L14.047 114.942ZM4.90345 105.376C2.64078 101.303 1.51367 96.9872 1.51367 92.4141H-0.486328C-0.486328 97.3331 0.730312 101.982 3.15514 106.347L4.90345 105.376ZM1.51367 92.4141C1.51367 86.7848 3.27793 82.2098 6.76885 78.6081L5.33271 77.2161C1.44082 81.2316 -0.486328 86.3246 -0.486328 92.4141H1.51367ZM6.77414 78.6026C10.2683 74.942 14.6317 73.1113 19.9375 73.1113V71.1113C14.1105 71.1113 9.21609 73.1478 5.32743 77.2216L6.77414 78.6026ZM19.9375 73.1113C25.1736 73.1113 29.5674 74.6533 33.1783 77.7087L34.4702 76.1819C30.4639 72.792 25.5998 71.1113 19.9375 71.1113V73.1113ZM33.1715 77.7029C36.7713 80.8042 38.5371 84.5756 38.5371 89.0742H40.5371C40.5371 83.9635 38.4944 79.6489 34.4769 76.1877L33.1715 77.7029ZM38.5371 89.0742C38.5371 90.1716 38.2143 92.1173 37.5111 94.9887L39.4537 95.4644C40.1568 92.5936 40.5371 90.4378 40.5371 89.0742H38.5371ZM37.5018 95.0304C37.3697 95.6911 37.3066 96.4024 37.3066 97.1602H39.3066C39.3066 96.5117 39.3608 95.9339 39.463 95.4227L37.5018 95.0304ZM37.3066 97.1602C37.3066 99.3082 38.0938 101.113 39.6719 102.485L40.9843 100.976C39.8672 100.004 39.3066 98.7622 39.3066 97.1602H37.3066ZM39.6719 102.485C41.2432 103.851 43.2834 104.488 45.6895 104.488V102.488C43.6424 102.488 42.1083 101.953 40.9843 100.976L39.6719 102.485ZM45.6895 104.488C49.9772 104.488 53.4372 102.54 56.0073 98.779L54.356 97.6507C52.1214 100.921 49.2533 102.488 45.6895 102.488V104.488ZM56.0073 98.779C58.5566 95.0483 59.7852 90.203 59.7852 84.3281H57.7852C57.7852 89.9377 56.6114 94.3501 54.356 97.6507L56.0073 98.779ZM59.7851 84.3171L59.6972 76.3191L57.6973 76.3411L57.7852 84.3391L59.7851 84.3171ZM59.6972 76.3219L59.5215 54.7887L57.5215 54.805L57.6973 76.3382L59.6972 76.3219ZM59.5207 54.7565C58.9944 41.7161 58.5829 33.9826 58.2829 31.6424L56.2991 31.8967C56.585 34.1268 56.9939 41.7449 57.5223 54.8372L59.5207 54.7565ZM58.2861 31.67C58.0394 29.2033 57.3531 27.117 56.169 25.4723L54.5459 26.6409C55.4711 27.926 56.0739 29.6482 56.296 31.869L58.2861 31.67ZM56.1574 25.4566C55.2525 24.2501 54.3475 23.335 53.4316 22.8771L52.5372 24.6659C53.0275 24.9111 53.7045 25.5194 54.5574 26.6566L56.1574 25.4566ZM53.4632 22.8936C53.0408 22.6631 52.3342 22.4108 51.4317 22.1342C50.5019 21.8493 49.2835 21.5152 47.7822 21.1325L47.2882 23.0706C48.7751 23.4496 49.9591 23.7747 50.8457 24.0464C51.7595 24.3265 52.2835 24.5283 52.5055 24.6494L53.4632 22.8936ZM47.7391 21.1226C46.6128 20.8879 45.6117 20.2313 44.7358 19.0462L43.1275 20.235C44.2438 21.7453 45.645 22.7293 47.3312 23.0805L47.7391 21.1226ZM44.7358 19.0462C43.8535 17.8525 43.4375 16.6219 43.4375 15.334H41.4375C41.4375 17.0929 42.0176 18.7334 43.1275 20.235L44.7358 19.0462ZM43.4375 15.334C43.4375 12.4737 44.5288 10.2517 46.7349 8.57082L45.5229 6.97996C42.8071 9.04908 41.4375 11.8661 41.4375 15.334H43.4375ZM46.7377 8.5687C49.077 6.77345 52.9713 5.25833 58.5497 4.09617L58.1417 2.13821C52.4701 3.3198 48.2199 4.91014 45.5201 6.98208L46.7377 8.5687ZM58.5471 4.0967C64.7475 2.82184 71.1546 2.18359 77.7695 2.18359V0.183594C71.0251 0.183594 64.4829 0.834411 58.1443 2.13768L58.5471 4.0967ZM225.074 13.4883L225.688 12.6986L225.682 12.6943L225.074 13.4883ZM243.619 36.5156L244.516 36.0729L244.512 36.0662L243.619 36.5156ZM236.852 101.73L236.085 101.088L236.084 101.089L236.852 101.73ZM206.529 121.682L206.835 122.634L206.837 122.633L206.529 121.682ZM154.322 119.045L154.737 118.135L154.737 118.135L154.322 119.045ZM128.043 95.9297L128.895 95.4067L128.894 95.4042L128.043 95.9297ZM130.68 26.0566L131.483 26.6524L131.483 26.6519L130.68 26.0566ZM159.068 5.13867L159.419 6.07521L159.425 6.07272L159.068 5.13867ZM177.262 25.793L177.301 24.7937L177.281 24.793H177.262V25.793ZM165.572 32.3848L166.4 32.9463L166.405 32.939L166.409 32.9317L165.572 32.3848ZM166.275 67.1016L165.32 67.3966L165.32 67.3984L166.275 67.1016ZM176.471 90.2168L175.617 90.7367L175.621 90.7441L175.626 90.7514L176.471 90.2168ZM183.15 97.0723L182.609 97.9129L182.617 97.9182L183.15 97.0723ZM202.047 94.6113L201.275 93.9751L201.269 93.9833L202.047 94.6113ZM193.873 37.4824L193.024 38.0112L193.026 38.0132L193.873 37.4824ZM185.611 1.56836C200.465 1.56836 213.402 5.8113 224.466 14.2823L225.682 12.6943C214.246 3.9387 200.875 -0.431641 185.611 -0.431641V1.56836ZM224.461 14.278C231.95 20.0963 238.04 27.6515 242.726 36.9651L244.512 36.0662C239.706 26.5126 233.433 18.7162 225.688 12.6986L224.461 14.278ZM242.722 36.9583C247.291 46.2117 249.562 55.4361 249.562 64.6406H251.562C251.562 55.0951 249.205 45.5695 244.516 36.0729L242.722 36.9583ZM249.562 64.6406C249.562 78.2265 245.08 90.3639 236.085 101.088L237.618 102.373C246.905 91.3002 251.562 78.711 251.562 64.6406H249.562ZM236.084 101.089C228.481 110.19 218.539 116.74 206.221 120.73L206.837 122.633C219.481 118.537 229.753 111.787 237.619 102.372L236.084 101.089ZM206.224 120.729C198.643 123.16 191.04 124.373 183.414 124.373V126.373C191.256 126.373 199.064 125.125 206.835 122.634L206.224 120.729ZM183.414 124.373C173.421 124.373 163.865 122.295 154.737 118.135L153.908 119.955C163.295 124.233 173.134 126.373 183.414 126.373V124.373ZM154.737 118.135C143.723 113.118 135.117 105.547 128.895 95.4067L127.191 96.4527C133.625 106.938 142.538 114.776 153.908 119.955L154.737 118.135ZM128.894 95.4042C122.842 85.6054 119.814 74.8019 119.814 62.9707H117.814C117.814 75.163 120.94 86.3321 127.192 96.4552L128.894 95.4042ZM119.814 62.9707C119.814 49.2284 123.707 37.1351 131.483 26.6524L129.877 25.4609C121.832 36.3063 117.814 48.8224 117.814 62.9707H119.814ZM131.483 26.6519C138.391 17.3265 147.691 10.466 159.419 6.07519L158.718 4.20215C146.657 8.71763 137.031 15.8024 129.876 25.4614L131.483 26.6519ZM159.425 6.07272C167.265 3.07511 175.99 1.56836 185.611 1.56836V-0.431641C175.78 -0.431641 166.809 1.10849 158.711 4.20462L159.425 6.07272ZM177.262 24.793C171.976 24.793 167.776 27.1831 164.735 31.8378L166.409 32.9317C169.111 28.7974 172.703 26.793 177.262 26.793V24.793ZM164.745 31.8233C162.391 35.2923 161.232 39.3908 161.232 44.0742H163.232C163.232 39.7342 164.301 36.0397 166.4 32.9463L164.745 31.8233ZM161.232 44.0742C161.232 50.8252 162.605 58.604 165.32 67.3965L167.231 66.8066C164.555 58.1382 163.232 50.5654 163.232 44.0742H161.232ZM165.32 67.3984C168.037 76.137 171.467 83.9189 175.617 90.7367L177.325 89.6968C173.272 83.0381 169.905 75.4099 167.23 66.8048L165.32 67.3984ZM175.626 90.7514C177.513 93.735 179.84 96.1285 182.609 97.9128L183.692 96.2317C181.187 94.6176 179.061 92.4408 177.316 89.6822L175.626 90.7514ZM182.617 97.9182C185.446 99.7019 188.353 100.621 191.324 100.621V98.6211C188.787 98.6211 186.245 97.841 183.684 96.2263L182.617 97.9182ZM191.324 100.621C196.066 100.621 199.932 98.8245 202.825 95.2393L201.269 93.9833C198.771 97.0779 195.488 98.6211 191.324 98.6211V100.621ZM202.818 95.2475C205.755 91.6862 207.178 87.0475 207.178 81.4277H205.178C205.178 86.7064 203.847 90.8568 201.275 93.9751L202.818 95.2475ZM207.178 81.4277C207.178 74.2312 206.018 66.4935 203.713 58.2199L201.787 58.7566C204.052 66.8893 205.178 74.4446 205.178 81.4277H207.178ZM203.713 58.2199C201.408 49.9458 198.415 42.8509 194.721 36.9517L193.026 38.0132C196.597 43.7155 199.521 50.6245 201.787 58.7566L203.713 58.2199ZM194.722 36.9537C192.436 33.2851 189.77 30.3662 186.712 28.2257L185.565 29.8642C188.367 31.8252 190.856 34.5313 193.024 38.0112L194.722 36.9537ZM186.712 28.2257C183.656 26.0867 180.516 24.9198 177.301 24.7937L177.223 26.7922C179.984 26.9005 182.762 27.9016 185.565 29.8642L186.712 28.2257ZM310.064 3.0293L309.865 4.00921L309.876 4.01145L310.064 3.0293ZM316.656 6.19336L315.962 6.9132L315.975 6.92581L315.989 6.93793L316.656 6.19336ZM317.271 16.125L316.496 15.4933L316.49 15.5015L316.483 15.5097L317.271 16.125ZM319.469 31.418L318.658 32.0031L318.659 32.0052L319.469 31.418ZM329.225 34.582L329.825 35.382L329.837 35.3727L329.849 35.3629L329.225 34.582ZM333.795 29.6602L334.576 30.2849L334.577 30.2829L333.795 29.6602ZM336.783 20.4316L335.869 20.8378L335.887 20.8784L335.909 20.9173L336.783 20.4316ZM333.971 16.6523L334.743 16.0166L334.734 16.0063L334.725 15.9962L333.971 16.6523ZM378.883 2.67773L378.589 3.63352L378.593 3.63476L378.883 2.67773ZM383.629 6.01758L382.829 6.61758L382.836 6.62657L382.843 6.6354L383.629 6.01758ZM375.719 19.5527L375.544 18.5681L375.537 18.5694L375.529 18.5709L375.719 19.5527ZM367.018 23.4199L367.624 24.2154L367.63 24.2108L367.635 24.2062L367.018 23.4199ZM353.482 36.7793L352.751 36.097L352.748 36.1002L353.482 36.7793ZM338.541 55.8516L337.641 55.4147L337.639 55.4201L338.541 55.8516ZM336.432 92.9414L337.428 92.8597L337.428 92.8509L336.432 92.9414ZM338.102 100.412L337.238 100.916L337.242 100.924L337.247 100.932L338.102 100.412ZM343.199 104.455L342.736 105.341L342.737 105.342L343.199 104.455ZM286.861 121.945L286.649 122.922L286.649 122.922L286.861 121.945ZM282.643 104.719L282.311 103.775L282.308 103.776L282.643 104.719ZM288.883 100.236L287.976 99.8156L287.971 99.8247L288.883 100.236ZM290.289 60.6855L289.347 61.0206L289.349 61.0273L290.289 60.6855ZM284.137 50.4902L284.933 49.8849L284.93 49.8808L284.137 50.4902ZM263.658 27.1992L264.359 26.4862L264.358 26.4853L263.658 27.1992ZM254.869 21.1348L255.22 20.1984L255.214 20.1962L254.869 21.1348ZM254.078 3.82031L254.354 4.78152L254.363 4.77892L254.078 3.82031ZM283.785 2.18359C295.249 2.18359 303.929 2.79899 309.865 4.00914L310.264 2.04945C304.129 0.798662 295.29 0.183594 283.785 0.183594V2.18359ZM309.876 4.01145C312.484 4.51075 314.49 5.49395 315.962 6.9132L317.35 5.47352C315.541 3.72871 313.153 2.60253 310.253 2.04714L309.876 4.01145ZM315.989 6.93793C317.51 8.3022 318.205 9.80147 318.205 11.4668H320.205C320.205 9.14775 319.201 7.1314 317.324 5.44879L315.989 6.93793ZM318.205 11.4668C318.205 12.6924 317.689 14.029 316.496 15.4933L318.047 16.7567C319.432 15.0569 320.205 13.2881 320.205 11.4668H318.205ZM316.483 15.5097C315.528 16.7336 314.788 17.8147 314.283 18.7464C313.793 19.6508 313.459 20.5275 313.459 21.3105H315.459C315.459 21.0389 315.594 20.524 316.041 19.6999C316.473 18.903 317.14 17.9188 318.06 16.7403L316.483 15.5097ZM313.459 21.3105C313.459 22.5967 313.958 24.1329 314.815 25.8635C315.684 27.6156 316.97 29.6644 318.658 32.0031L320.28 30.8329C318.627 28.5427 317.409 26.5924 316.607 24.9753C315.795 23.3368 315.459 22.1338 315.459 21.3105H313.459ZM318.659 32.0052C320.856 35.0325 323.168 36.9004 325.621 36.9004V34.9004C324.207 34.9004 322.418 33.78 320.278 30.8307L318.659 32.0052ZM325.621 36.9004C327.107 36.9004 328.514 36.3653 329.825 35.382L328.625 33.782C327.592 34.5566 326.596 34.9004 325.621 34.9004V36.9004ZM329.849 35.3629C331.111 34.3534 332.691 32.641 334.576 30.2849L333.014 29.0355C331.149 31.3668 329.682 32.9356 328.6 33.8012L329.849 35.3629ZM334.577 30.2829C335.746 28.8143 336.648 27.4655 337.26 26.2402C337.869 25.0227 338.223 23.868 338.223 22.8047H336.223C336.223 23.4406 336.005 24.2781 335.471 25.3458C334.941 26.4056 334.129 27.6349 333.012 29.0374L334.577 30.2829ZM338.223 22.8047C338.223 21.6902 338.074 20.6951 337.657 19.946L335.909 20.9173C336.079 21.2229 336.223 21.8098 336.223 22.8047H338.223ZM337.697 20.0255C337.528 19.6458 337.169 19.1154 336.707 18.4943C336.224 17.8456 335.568 17.0185 334.743 16.0166L333.199 17.2881C334.014 18.2784 334.647 19.0772 335.102 19.6883C335.577 20.327 335.804 20.6901 335.869 20.8378L337.697 20.0255ZM334.725 15.9962C333.752 14.8767 333.213 13.3163 333.213 11.2031H331.213C331.213 13.6602 331.846 15.7327 333.216 17.3085L334.725 15.9962ZM333.213 11.2031C333.213 9.79822 333.679 8.58789 334.636 7.52809C335.612 6.44701 337.133 5.48656 339.283 4.69248C343.596 3.09978 350.176 2.27148 359.107 2.27148V0.271484C350.109 0.271484 343.242 1.09846 338.59 2.81631C336.258 3.6775 334.417 4.78615 333.151 6.18798C331.867 7.61109 331.213 9.29748 331.213 11.2031H333.213ZM359.107 2.27148C364.163 2.27148 368.319 2.38847 371.583 2.62053C374.866 2.85397 377.18 3.20008 378.589 3.63351L379.177 1.72196C377.539 1.21789 375.034 0.860869 371.725 0.625566C368.396 0.388879 364.188 0.271484 359.107 0.271484V2.27148ZM378.593 3.63476C380.319 4.15799 381.724 5.14444 382.829 6.61758L384.429 5.41758C383.073 3.60946 381.313 2.36935 379.173 1.72071L378.593 3.63476ZM382.843 6.6354C384.01 8.12086 384.562 9.66543 384.562 11.291H386.562C386.562 9.1666 385.826 7.19554 384.415 5.39976L382.843 6.6354ZM384.562 11.291C384.562 13.48 383.905 14.9812 382.722 15.9745L384.008 17.5059C385.756 16.0384 386.562 13.9068 386.562 11.291H384.562ZM382.722 15.9745C381.467 17.029 379.137 17.9306 375.544 18.5681L375.893 20.5374C379.566 19.8858 382.334 18.9124 384.008 17.5059L382.722 15.9745ZM375.529 18.5709C372.047 19.2429 368.997 20.5933 366.4 22.6336L367.635 24.2062C369.961 22.3794 372.711 21.1517 375.908 20.5346L375.529 18.5709ZM366.412 22.6245C363.871 24.5598 359.303 29.0779 352.751 36.097L354.213 37.4616C360.787 30.4182 365.242 26.0301 367.624 24.2154L366.412 22.6245ZM352.748 36.1002C344.786 44.707 339.707 51.1631 337.642 55.4147L339.441 56.2885C341.36 52.3369 346.242 46.0782 354.216 37.4584L352.748 36.1002ZM337.639 55.4201C335.608 59.6664 334.641 65.9111 334.641 74.0449H336.641C336.641 66.0068 337.607 60.1227 339.443 56.283L337.639 55.4201ZM334.641 74.0449C334.641 80.8672 334.905 87.1966 335.436 93.0319L337.428 92.8509C336.903 87.0847 336.641 80.8164 336.641 74.0449H334.641ZM335.435 93.0231C335.729 96.6088 336.295 99.2992 337.238 100.916L338.965 99.9082C338.268 98.7125 337.72 96.4224 337.428 92.8597L335.435 93.0231ZM337.247 100.932C338.213 102.518 340.112 103.97 342.736 105.341L343.662 103.569C341.13 102.245 339.631 101.002 338.956 99.8922L337.247 100.932ZM342.737 105.342C346.849 107.483 348.615 109.993 348.615 112.805H350.615C350.615 108.937 348.104 105.881 343.661 103.568L342.737 105.342ZM348.615 112.805C348.615 116.133 346.212 118.877 340.462 120.822C334.731 122.761 326.031 123.758 314.283 123.758V125.758C326.09 125.758 335.056 124.763 341.103 122.717C347.13 120.678 350.615 117.445 350.615 112.805H348.615ZM314.283 123.758C304.68 123.758 295.611 122.827 287.074 120.968L286.649 122.922C295.338 124.814 304.551 125.758 314.283 125.758V123.758ZM287.074 120.968C283.523 120.195 280.98 119.065 279.341 117.651C277.739 116.268 276.963 114.586 276.963 112.541H274.963C274.963 115.183 276.004 117.413 278.034 119.165C280.028 120.885 282.934 122.114 286.649 122.922L287.074 120.968ZM276.963 112.541C276.963 110.947 277.444 109.622 278.393 108.51C279.358 107.381 280.856 106.415 282.977 105.661L282.308 103.776C279.976 104.605 278.134 105.733 276.872 107.211C275.595 108.708 274.963 110.502 274.963 112.541H276.963ZM282.974 105.662C286.386 104.465 288.8 102.849 289.794 100.648L287.971 99.8247C287.325 101.257 285.579 102.629 282.311 103.775L282.974 105.662ZM289.79 100.657C290.804 98.4714 291.517 94.9273 291.987 90.1387C292.461 85.318 292.695 79.1298 292.695 71.584H290.695C290.695 79.0967 290.461 85.2132 289.997 89.9433C289.53 94.7055 288.837 97.9582 287.976 99.8156L289.79 100.657ZM292.695 71.584C292.695 66.8504 292.225 63.0824 291.229 60.3438L289.349 61.0273C290.228 63.445 290.695 66.9425 290.695 71.584H292.695ZM291.231 60.3505C290.241 57.566 288.115 54.0689 284.933 49.8849L283.341 51.0956C286.487 55.2318 288.462 58.5317 289.347 61.0206L291.231 60.3505ZM284.93 49.8808C278.283 41.2345 271.427 33.4357 264.359 26.4862L262.957 27.9122C269.952 34.7909 276.748 42.5194 283.344 51.0997L284.93 49.8808ZM264.358 26.4853C261.251 23.4374 258.206 21.3182 255.22 20.1984L254.518 22.0711C257.157 23.0608 259.972 24.9844 262.958 27.9132L264.358 26.4853ZM255.214 20.1962C253.233 19.4677 251.661 18.8398 250.49 18.3116C249.287 17.7686 248.602 17.3717 248.313 17.1236L247.011 18.6421C247.542 19.097 248.469 19.5937 249.668 20.1346C250.9 20.6905 252.521 21.337 254.524 22.0733L255.214 20.1962ZM248.313 17.1236C246.914 15.9248 246.201 14.3376 246.201 12.2578H244.201C244.201 14.8655 245.129 17.0284 247.011 18.6421L248.313 17.1236ZM246.201 12.2578C246.201 10.581 246.82 9.15486 248.109 7.92892C249.428 6.67566 251.478 5.60736 254.354 4.78148L253.802 2.85915C250.761 3.73249 248.372 4.92004 246.731 6.47928C245.062 8.06584 244.201 10.0088 244.201 12.2578H246.201ZM254.363 4.77892C260.13 3.06586 269.905 2.18359 283.785 2.18359V0.183594C269.892 0.183594 259.862 1.05914 253.793 2.86171L254.363 4.77892ZM399.361 83.8887V82.8886L399.351 82.8887L399.361 83.8887ZM413.863 89.6895L414.55 88.9622L414.549 88.9619L413.863 89.6895ZM413.863 119.572L414.549 120.3L414.555 120.294L413.863 119.572ZM384.859 119.572L384.168 120.294L384.173 120.3L384.859 119.572ZM384.859 89.6895L384.179 88.9567L384.179 88.957L384.859 89.6895ZM399.361 84.8887C404.669 84.8887 409.259 86.7223 413.177 90.417L414.549 88.9619C410.265 84.9222 405.186 82.8887 399.361 82.8887V84.8887ZM413.177 90.4168C417.119 94.1363 419.104 98.9326 419.104 104.895H421.104C421.104 98.4346 418.928 93.0942 414.55 88.9622L413.177 90.4168ZM419.104 104.895C419.104 110.425 417.133 115.056 413.172 118.85L414.555 120.294C418.914 116.12 421.104 110.966 421.104 104.895H419.104ZM413.177 118.845C409.259 122.539 404.669 124.373 399.361 124.373V126.373C405.186 126.373 410.265 124.34 414.549 120.3L413.177 118.845ZM399.361 124.373C394.054 124.373 389.464 122.539 385.545 118.845L384.173 120.3C388.458 124.34 393.536 126.373 399.361 126.373V124.373ZM385.551 118.85C381.596 115.062 379.619 110.346 379.619 104.631H377.619C377.619 110.869 379.802 116.114 384.168 120.294L385.551 118.85ZM379.619 104.631C379.619 98.7923 381.6 94.085 385.54 90.4219L384.179 88.957C379.799 93.0283 377.619 98.2819 377.619 104.631H379.619ZM385.54 90.4222C389.46 86.7819 394.056 84.9446 399.372 84.8886L399.351 82.8887C393.534 82.95 388.462 84.9798 384.179 88.9567L385.54 90.4222Z" fill="#7D85B9"/>
</svg>
