<svg width="628" height="221" viewBox="0 0 628 221" fill="none" xmlns="http://www.w3.org/2000/svg">
<rect x="0.5" y="0.5" width="627" height="220" rx="49.5" fill="#F0EDED" stroke="#C9C9C9"/>
<path d="M46.9199 103.617C52.6035 103.632 56.8076 106.459 56.793 110.766C56.8076 114.735 53.3945 117.387 48.5312 117.87V122.719H59.0781V125.385H34.8789V122.719H45.3086V117.87C40.5039 117.387 37.0908 114.735 37.1055 110.766C37.0908 106.459 41.2803 103.632 46.9199 103.617ZM40.2988 110.766C40.2842 113.622 43.0527 115.336 46.9199 115.336C50.8457 115.336 53.5996 113.622 53.5996 110.766C53.5996 107.997 50.8457 106.239 46.9199 106.254C43.0527 106.239 40.2842 107.997 40.2988 110.766ZM82.1934 107.836V110.443H63.9121V102.475H67.1055V107.836H82.1934ZM60.7773 115.072V112.465H84.9766V115.072H60.7773ZM63.6484 119.438V116.918H82.0176V123.686H66.959V125.736H82.8965V128.285H63.6777V121.312H78.7949V119.438H63.6484ZM95.3184 103.969C99.5225 103.954 102.584 106.605 102.613 110.355C102.584 114.12 99.5225 116.757 95.3184 116.771C91.1582 116.757 88.0381 114.12 88.0527 110.355C88.0381 106.605 91.1582 103.954 95.3184 103.969ZM86.8516 120.434C91.627 120.434 98.2334 120.375 103.961 119.555L104.225 121.928C98.292 123.056 91.9346 123.1 87.2617 123.1L86.8516 120.434ZM91.2754 110.355C91.2607 112.567 93.0039 113.93 95.3184 113.93C97.6621 113.93 99.4053 112.567 99.4199 110.355C99.4053 108.158 97.6768 106.781 95.3184 106.781C93.0039 106.781 91.2607 108.158 91.2754 110.355ZM105.543 128.637V102.123H108.795V128.637H105.543ZM129.83 107.514C129.83 110.81 132.086 114.032 136.305 115.336L134.635 117.885C131.632 116.918 129.449 114.926 128.233 112.406C127.047 115.146 124.791 117.328 121.656 118.412L119.986 115.834C124.249 114.428 126.52 111 126.549 107.514V106.752H120.836V104.145H135.396V106.752H129.83V107.514ZM124.322 128.08V119.613H127.604V125.443H142.574V128.08H124.322ZM138.561 121.371V102.152H141.842V121.371H138.561ZM167.213 114.164V116.742H159.361V122.807H169.908V125.473H145.709V122.807H156.139V116.742H148.639V104.086H167.008V106.693H151.891V114.164H167.213Z" fill="#8A8A8A"/>
<path d="M46.9199 157.617C52.6035 157.632 56.8076 160.459 56.793 164.766C56.8076 168.735 53.3945 171.387 48.5312 171.87V176.719H59.0781V179.385H34.8789V176.719H45.3086V171.87C40.5039 171.387 37.0908 168.735 37.1055 164.766C37.0908 160.459 41.2803 157.632 46.9199 157.617ZM40.2988 164.766C40.2842 167.622 43.0527 169.336 46.9199 169.336C50.8457 169.336 53.5996 167.622 53.5996 164.766C53.5996 161.997 50.8457 160.239 46.9199 160.254C43.0527 160.239 40.2842 161.997 40.2988 164.766ZM82.1934 161.836V164.443H63.9121V156.475H67.1055V161.836H82.1934ZM60.7773 169.072V166.465H84.9766V169.072H60.7773ZM63.6484 173.438V170.918H82.0176V177.686H66.959V179.736H82.8965V182.285H63.6777V175.312H78.7949V173.438H63.6484ZM95.3184 157.969C99.5225 157.954 102.584 160.605 102.613 164.355C102.584 168.12 99.5225 170.757 95.3184 170.771C91.1582 170.757 88.0381 168.12 88.0527 164.355C88.0381 160.605 91.1582 157.954 95.3184 157.969ZM86.8516 174.434C91.627 174.434 98.2334 174.375 103.961 173.555L104.225 175.928C98.292 177.056 91.9346 177.1 87.2617 177.1L86.8516 174.434ZM91.2754 164.355C91.2607 166.567 93.0039 167.93 95.3184 167.93C97.6621 167.93 99.4053 166.567 99.4199 164.355C99.4053 162.158 97.6768 160.781 95.3184 160.781C93.0039 160.781 91.2607 162.158 91.2754 164.355ZM105.543 182.637V156.123H108.795V182.637H105.543ZM133.521 157.471C133.521 160.459 137.184 163.491 142.662 164.209L141.432 166.758C137.052 166.113 133.551 164.106 131.852 161.367C130.138 164.121 126.637 166.113 122.271 166.758L121.041 164.209C126.52 163.491 130.167 160.474 130.182 157.471V156.475H133.521V157.471ZM119.781 170.977V168.369H143.922V170.977H133.434V173.848H140.963V182.607H137.711V176.426H122.447V173.848H130.211V170.977H119.781ZM168.502 156.123V182.607H165.396V156.123H168.502ZM145.24 175.078C149.063 172.749 150.748 167.974 150.748 163.359V161.602H146.148V158.965H158.16V161.602H153.883V163.359C153.883 167.827 155.479 172.31 159.273 174.492L157.34 176.895C154.894 175.444 153.268 172.925 152.345 169.907C151.407 173.174 149.723 175.957 147.232 177.51L145.24 175.078ZM156.227 167.988V165.352H160.035V156.621H163.111V181.318H160.035V167.988H156.227Z" fill="#8A8A8A"/>
<path d="M92.835 60.3418C87.896 60.3418 84.2559 57.3853 84.1191 53.3008H88.46C88.5967 55.3003 90.4937 56.7358 92.835 56.7529C95.6035 56.7358 97.603 54.7363 97.5859 52.002C97.603 49.165 95.5522 47.1655 92.6982 47.1484C90.7671 47.1313 89.3657 47.8149 88.5967 49.2676H84.4609L85.9648 35.2539H100.594V38.9795H89.6221L88.8701 45.542H89.1094C90.0664 44.4653 91.8608 43.6792 93.8945 43.6621C98.4917 43.6792 101.91 47.0972 101.893 51.8652C101.91 56.8042 98.1841 60.3418 92.835 60.3418ZM130.535 32.1777V50.1904H126.707V48.9258H120.931V46.6016H126.707V32.1777H130.535ZM104.593 43.3203C110.557 43.3203 118.025 43.269 124.656 42.6025L124.861 44.9951C122.042 45.3711 119.136 45.6274 116.282 45.7642V50.2246H112.522V45.918C109.874 45.9863 107.327 46.0034 105.003 45.9863L104.593 43.3203ZM106.78 37.3047C106.78 34.502 109.874 32.6733 114.573 32.6562C119.17 32.6733 122.281 34.502 122.298 37.3047C122.281 40.1758 119.17 41.9189 114.573 41.9189C109.874 41.9189 106.78 40.1758 106.78 37.3047ZM109.104 53.7451V51.1475H130.535V58.0859H112.967V60.0684H131.355V62.7686H109.241V55.5908H126.775V53.7451H109.104ZM110.403 37.3047C110.369 38.6035 111.976 39.4067 114.573 39.3896C117.12 39.4067 118.743 38.6035 118.743 37.3047C118.743 36.0059 117.12 35.1685 114.573 35.1855C111.976 35.1685 110.369 36.0059 110.403 37.3047ZM144.207 60V56.7871L152.957 48.3447C155.452 45.8496 156.751 44.3799 156.751 42.2949C156.751 39.9878 154.922 38.5352 152.513 38.5352C149.966 38.5352 148.326 40.1245 148.343 42.6367H144.104C144.087 37.9541 147.608 34.9121 152.547 34.9121C157.605 34.9121 161.006 37.937 161.023 42.0898C161.006 44.8755 159.673 47.1313 154.803 51.7285L150.394 56.1035V56.2744H161.399V60H144.207ZM174.285 60.3418C169.004 60.3418 165.228 57.4707 165.125 53.3008H169.603C169.722 55.2832 171.705 56.5991 174.285 56.582C177.002 56.5991 178.968 55.0952 178.968 52.8906C178.968 50.6689 177.054 49.0796 173.841 49.0625H171.619V45.6445H173.841C176.473 45.6445 178.301 44.1748 178.284 42.0215C178.301 39.9365 176.729 38.5352 174.319 38.5352C171.995 38.5352 169.996 39.834 169.91 41.9189H165.638C165.74 37.7661 169.517 34.9121 174.354 34.9121C179.378 34.9121 182.625 37.9883 182.591 41.7822C182.625 44.5508 180.779 46.5503 178.079 47.1143V47.3193C181.565 47.7808 183.548 50.0195 183.514 53.1299C183.548 57.3169 179.634 60.3418 174.285 60.3418ZM195.135 33.1348C199.817 33.1519 203.304 36.04 203.338 40.1074C203.304 44.1919 199.817 47.063 195.135 47.0801C190.418 47.063 186.932 44.1919 186.932 40.1074C186.932 36.04 190.418 33.1519 195.135 33.1348ZM190.623 40.1074C190.623 42.5 192.537 44.0039 195.135 44.0039C197.732 44.0039 199.629 42.5 199.646 40.1074C199.629 37.7661 197.732 36.2622 195.135 36.2793C192.537 36.2622 190.623 37.7661 190.623 40.1074ZM191.614 52.0703V49.0967H212.122V57.1631H195.408V59.6582H213.045V62.666H191.683V54.3604H208.328V52.0703H191.614ZM208.294 47.7637V32.1436H212.122V47.7637H208.294ZM241.038 34.707C241.021 38.5864 245.379 42.5342 251.976 43.3887L250.472 46.4648C245.225 45.6787 241.055 43.0981 239.039 39.6118C237.022 43.0981 232.869 45.6787 227.674 46.4648L226.17 43.3887C232.698 42.5342 237.039 38.6206 237.039 34.707V33.1348H241.038V34.707ZM224.939 52.2754V49.1309H253.104V52.2754H240.833V63.042H237.073V52.2754H224.939ZM263.768 33.5107C267.767 33.4937 270.911 35.8008 271.68 39.1846H277.269V32.1436H281.062V48.7207H277.269V42.2607H271.714C270.979 45.73 267.801 48.0713 263.768 48.0713C259.034 48.0713 255.599 45.0293 255.599 40.7568C255.599 36.5356 259.034 33.4937 263.768 33.5107ZM259.222 40.7568C259.222 43.2349 261.102 44.8755 263.768 44.8584C266.365 44.8755 268.228 43.2349 268.245 40.7568C268.228 38.2788 266.365 36.6724 263.768 36.6895C261.102 36.6724 259.222 38.2788 259.222 40.7568ZM260.691 62.666V50.1562H264.451V53.4375H277.269V50.1562H281.062V62.666H260.691ZM264.451 59.5898H277.269V56.377H264.451V59.5898Z" fill="#AE5E57"/>
<path d="M412.934 60.3418C408.097 60.3076 403.278 57.4365 403.295 48.3105C403.295 39.8511 407.14 34.9121 413.207 34.9121C417.975 34.9121 421.256 37.9028 421.82 41.9189H417.411C416.967 40.022 415.463 38.7573 413.207 38.7744C409.618 38.7573 407.619 41.936 407.602 47.1484H407.841C409.105 45.0122 411.481 43.7476 414.198 43.7646C418.642 43.7476 422.077 47.1143 422.06 51.7969C422.077 56.7188 418.402 60.376 412.934 60.3418ZM408.08 51.9336C408.114 54.5142 410.131 56.7358 412.934 56.7529C415.685 56.7358 417.736 54.6167 417.753 51.8994C417.736 49.2676 415.753 47.1484 413.002 47.1484C410.216 47.1484 408.114 49.353 408.08 51.9336ZM450.531 32.1436V63.042H446.737V32.1436H450.531ZM424.931 54.4629C427.392 54.4458 430.177 54.4458 433.1 54.3604V51.5234C429.63 50.9766 427.357 48.8574 427.357 45.918C427.357 42.4316 430.451 40.1245 434.945 40.1074C439.491 40.1245 442.636 42.4316 442.636 45.918C442.636 48.8403 440.363 50.9424 436.894 51.5063V54.2236C439.611 54.104 442.345 53.8818 444.926 53.54L445.199 56.377C438.415 57.522 431.032 57.6074 425.478 57.6074L424.931 54.4629ZM425.58 38.7061V35.6982H433.1V32.2461H436.894V35.6982H444.379V38.7061H425.58ZM430.98 45.918C430.946 47.6953 432.604 48.7378 434.945 48.7207C437.355 48.7378 438.996 47.6953 438.979 45.918C438.996 44.1235 437.355 43.0298 434.945 43.0127C432.604 43.0298 430.946 44.1235 430.98 45.918ZM465.912 41.9531C465.912 46.5332 468.493 51.5234 473.261 53.7793L471.142 56.6504C467.792 55.1123 465.382 52.0361 464.083 48.4302C462.733 52.3267 460.187 55.6079 456.649 57.1973L454.564 54.2578C459.435 52.0703 462.152 46.8066 462.152 41.9531V40.3467H455.556V37.3047H462.152V32.793H465.946V37.3047H472.44V40.3467H465.912V41.9531ZM475.448 63.042V32.1436H479.242V44.3799H483.993V47.5586H479.242V63.042H475.448Z" fill="#AE5E57"/>
<path d="M504.74 34.0918L496.776 63.7256H492.948L500.946 34.0918H504.74ZM524.462 60.3418C518.942 60.3418 515.045 57.4023 515.062 53.3691C515.045 50.2246 517.387 47.6611 520.36 47.1826V47.0459C517.763 46.499 516.002 44.2432 515.985 41.543C516.002 37.7148 519.574 34.9121 524.462 34.9121C529.315 34.9121 532.904 37.7148 532.904 41.543C532.904 44.2603 531.093 46.499 528.529 47.0459V47.1826C531.486 47.6611 533.844 50.2246 533.861 53.3691C533.844 57.4023 529.931 60.3418 524.462 60.3418ZM519.643 52.959C519.625 55.249 521.522 56.8213 524.462 56.8213C527.367 56.8213 529.264 55.249 529.281 52.959C529.264 50.6348 527.248 48.9087 524.462 48.9258C521.676 48.9087 519.625 50.6177 519.643 52.959ZM520.326 41.9531C520.343 44.1235 522.052 45.6104 524.462 45.6104C526.837 45.6104 528.563 44.1235 528.563 41.9531C528.563 39.8511 526.889 38.3984 524.462 38.3984C521.984 38.3984 520.343 39.8511 520.326 41.9531ZM562.265 32.1436V63.042H558.471V32.1436H562.265ZM536.664 54.4629C539.125 54.4458 541.911 54.4458 544.833 54.3604V51.5234C541.364 50.9766 539.091 48.8574 539.091 45.918C539.091 42.4316 542.184 40.1245 546.679 40.1074C551.225 40.1245 554.369 42.4316 554.369 45.918C554.369 48.8403 552.096 50.9424 548.627 51.5063V54.2236C551.344 54.104 554.079 53.8818 556.659 53.54L556.933 56.377C550.148 57.522 542.765 57.6074 537.211 57.6074L536.664 54.4629ZM537.313 38.7061V35.6982H544.833V32.2461H548.627V35.6982H556.112V38.7061H537.313ZM542.714 45.918C542.68 47.6953 544.337 48.7378 546.679 48.7207C549.088 48.7378 550.729 47.6953 550.712 45.918C550.729 44.1235 549.088 43.0298 546.679 43.0127C544.337 43.0298 542.68 44.1235 542.714 45.918ZM577.646 41.9531C577.646 46.5332 580.226 51.5234 584.994 53.7793L582.875 56.6504C579.525 55.1123 577.116 52.0361 575.817 48.4302C574.467 52.3267 571.92 55.6079 568.383 57.1973L566.298 54.2578C571.168 52.0703 573.886 46.8066 573.886 41.9531V40.3467H567.289V37.3047H573.886V32.793H577.68V37.3047H584.174V40.3467H577.646V41.9531ZM587.182 63.042V32.1436H590.976V44.3799H595.727V47.5586H590.976V63.042H587.182Z" fill="#EBAFAA"/>
<ellipse cx="49" cy="47.5" rx="15" ry="14.5" fill="#FBC8C4"/>
<rect x="194.5" y="93.5" width="402" height="43" rx="20.5" fill="#FFF4F4" stroke="#C9C9C9"/>
<rect x="194.5" y="148.5" width="402" height="43" rx="20.5" fill="#FFF4F4" stroke="#C9C9C9"/>
<path d="M223.574 104.52C225.803 104.52 227.648 105.764 228.756 107.938H234.539V102.715H237.547V127.461H234.539V118.109H228.975C227.895 120.57 225.953 121.992 223.574 121.992C219.855 121.992 217.217 118.615 217.23 113.242C217.217 107.91 219.855 104.52 223.574 104.52ZM220.156 113.242C220.143 117.043 221.537 119.244 223.574 119.258C225.625 119.244 227.006 117.043 227.02 113.242C227.006 109.469 225.625 107.254 223.574 107.254C221.537 107.254 220.143 109.469 220.156 113.242ZM229.617 110.426C229.795 111.287 229.891 112.23 229.891 113.242C229.891 114.09 229.822 114.896 229.686 115.648H234.539V110.426H229.617ZM261.719 102.715V127.461H258.684V114.309H254.445V111.82H258.684V102.715H261.719ZM241.84 107.336V104.875H253.023V113.926H244.93V119.121C248.607 119.107 251.561 118.984 254.883 118.383L255.129 120.871C251.451 121.514 248.143 121.65 243.891 121.664H241.922V111.465H250.043V107.336H241.84ZM284.578 102.715V112.367H288.242V114.91H284.578V127.379H281.543V102.715H284.578ZM265.082 120.625C271.098 117.617 274.352 113.434 274.953 107.801H266.422V105.285H278.043C278.029 112.545 275.021 118.93 266.805 122.977L265.082 120.625ZM298.742 109.742C298.742 113.789 301.121 118.055 305.113 119.723L303.445 122.129C300.52 120.857 298.387 118.273 297.252 115.129C296.117 118.52 293.943 121.363 291.059 122.73L289.309 120.352C293.205 118.547 295.639 113.939 295.652 109.742V107.664H290.211V105.148H304.156V107.664H298.742V109.742ZM306.918 127.434V102.715H309.98V127.434H306.918ZM331.719 117.973C336.846 117.973 339.99 119.709 340.004 122.676C339.99 125.684 336.846 127.42 331.719 127.434C326.551 127.42 323.352 125.684 323.352 122.676C323.352 119.709 326.551 117.973 331.719 117.973ZM321.109 115.812V104.273H324.117V107.609H329.887V104.273H332.895V115.812H321.109ZM324.117 113.406H329.887V109.988H324.117V113.406ZM326.387 122.676C326.387 124.207 328.328 125.041 331.719 125.027C335.096 125.041 336.996 124.207 336.996 122.676C336.996 121.145 335.096 120.365 331.719 120.352C328.328 120.365 326.387 121.145 326.387 122.676ZM336.723 117.371V102.715H339.758V108.621H343.203V111.164H339.758V117.371H336.723ZM365.16 102.715V117.398H362.125V111.355H357.914V108.867H362.125V102.715H365.16ZM344.379 114.938C348.357 113.57 350.449 110.248 350.449 106.98V106.789H345.309V104.328H358.652V106.789H353.539V106.953C353.539 109.961 355.535 112.996 359.363 114.281L357.832 116.688C355.084 115.758 353.143 113.871 352.049 111.547C350.969 114.172 348.904 116.305 345.965 117.344L344.379 114.938ZM348.398 122.73C348.371 119.764 351.584 118.027 356.793 118.027C362.029 118.027 365.229 119.764 365.242 122.73C365.229 125.697 362.029 127.42 356.793 127.434C351.584 127.42 348.371 125.697 348.398 122.73ZM351.406 122.73C351.393 124.262 353.361 125.096 356.793 125.082C360.252 125.096 362.207 124.262 362.207 122.73C362.207 121.186 360.252 120.352 356.793 120.352C353.361 120.352 351.393 121.186 351.406 122.73ZM377.875 106.242C377.861 109.496 379.912 112.559 383.836 113.789L382.332 116.195C379.488 115.252 377.451 113.365 376.33 110.945C375.223 113.543 373.145 115.607 370.219 116.605L368.688 114.227C372.68 112.873 374.744 109.592 374.73 106.242V103.891H377.875V106.242ZM372.379 121.062V118.629H389.25V127.434H386.188V121.062H372.379ZM386.188 117.508V102.715H389.25V117.508H386.188Z" fill="#784210"/>
<path d="M234.047 158.152V175.461H231.203V165.863H228.934V163.32H231.203V158.152H234.047ZM216.246 169.91C218.693 168.215 219.336 165.07 219.336 162.664V159.656H221.988V162.664C221.975 164.346 222.221 166.834 223.506 168.734C224.764 166.889 225.01 164.496 225.023 162.664V159.656H227.703V162.664C227.676 165.139 228.277 168.27 230.766 169.91L229.262 172.016C227.799 171.141 226.91 169.746 226.363 168.146C225.871 169.814 225.01 171.346 223.52 172.316C222.002 171.332 221.127 169.773 220.621 168.105C220.088 169.691 219.186 171.113 217.723 172.016L216.246 169.91ZM221.141 181.941V174.066H224.176V179.453H239.16V181.941H221.141ZM235.824 176.117V157.715H238.613V176.117H235.824ZM258.793 173.164C264.166 173.178 267.557 174.873 267.57 177.812C267.557 180.684 264.166 182.406 258.793 182.406C253.475 182.406 250.043 180.684 250.043 177.812C250.043 174.873 253.475 173.178 258.793 173.164ZM247.719 171.387V168.926H256.414V164.441H259.422V168.926H270.141V171.387H247.719ZM250.289 161.297V158.891H267.406V160.941C267.42 162.896 267.42 164.975 266.723 167.504L263.715 167.23C264.33 164.838 264.371 163.088 264.371 161.297H250.289ZM253.105 177.812C253.078 179.262 255.225 180.055 258.793 180.055C262.375 180.055 264.535 179.262 264.562 177.812C264.535 176.309 262.375 175.461 258.793 175.461C255.225 175.461 253.078 176.309 253.105 177.812ZM294.395 170.566V172.973H271.809V170.566H281.57V168.734H274.707V158.371H291.688V160.723H277.742V162.418H291.086V164.66H277.742V166.41H291.879V168.734H284.605V170.566H294.395ZM274.488 178.359C274.488 175.775 277.592 174.326 283.102 174.34C288.529 174.326 291.646 175.775 291.66 178.359C291.646 181.012 288.529 182.406 283.102 182.406C277.592 182.406 274.488 181.012 274.488 178.359ZM277.523 178.359C277.523 179.562 279.383 180.137 283.102 180.137C286.752 180.137 288.598 179.562 288.625 178.359C288.598 177.184 286.752 176.609 283.102 176.609C279.383 176.609 277.523 177.184 277.523 178.359ZM308.941 159.766C308.928 162.869 312.414 166.027 317.691 166.711L316.488 169.172C312.291 168.543 308.955 166.479 307.342 163.689C305.729 166.479 302.406 168.543 298.25 169.172L297.047 166.711C302.27 166.027 305.742 162.896 305.742 159.766V158.508H308.941V159.766ZM296.062 173.82V171.305H318.594V173.82H308.777V182.434H305.77V173.82H296.062ZM334.945 160.094V162.5H320.289V160.094H326.113V157.605H329.148V160.094H334.945ZM321.547 167.969C321.547 165.262 324.049 163.457 327.617 163.457C331.186 163.457 333.646 165.262 333.66 167.969C333.646 170.676 331.186 172.48 327.617 172.48C324.049 172.48 321.547 170.676 321.547 167.969ZM323.297 176.773V174.34H339.758V182.434H336.723V176.773H323.297ZM324.5 167.969C324.486 169.363 325.744 170.143 327.617 170.129C329.49 170.143 330.762 169.363 330.762 167.969C330.762 166.574 329.49 165.754 327.617 165.754C325.744 165.754 324.486 166.574 324.5 167.969ZM336.723 173.191V157.715H339.758V164.277H343.203V166.766H339.758V173.191H336.723ZM345.938 172.453C345.938 167.312 347.469 163.02 350.039 159.355H353.32C351.434 162.076 349.547 167.559 349.547 172.453C349.547 177.348 351.434 182.844 353.32 185.578H350.039C347.469 181.887 345.938 177.607 345.938 172.453ZM363.684 161.652C363.684 164.756 365.693 167.695 369.508 168.898L367.867 171.277C365.201 170.375 363.287 168.57 362.207 166.273C361.141 168.898 359.145 170.963 356.301 171.961L354.66 169.582C358.639 168.201 360.635 164.906 360.648 161.379V159.027H363.684V161.652ZM358.023 177.703C358.023 174.777 361.236 173.041 366.391 173.055C371.504 173.041 374.662 174.777 374.676 177.703C374.662 180.697 371.504 182.406 366.391 182.406C361.236 182.406 358.023 180.697 358.023 177.703ZM361.059 177.703C361.059 179.234 363 180 366.391 180C369.768 180 371.668 179.234 371.668 177.703C371.668 176.254 369.768 175.434 366.391 175.434C363 175.434 361.059 176.254 361.059 177.703ZM371.395 172.508V157.715H374.43V163.73H377.875V166.246H374.43V172.508H371.395ZM386.488 172.453C386.488 177.607 384.957 181.887 382.387 185.578H379.105C380.992 182.844 382.879 177.348 382.879 172.453C382.879 167.559 380.992 162.076 379.105 159.355H382.387C384.957 163.02 386.488 167.312 386.488 172.453ZM397.098 185.578V165.152H400.516V167.586H400.734C401.268 166.533 402.361 164.961 405 164.961C408.418 164.961 411.111 167.641 411.125 172.59C411.111 177.471 408.5 180.26 405 180.273C402.443 180.26 401.281 178.742 400.734 177.648H400.598V185.578H397.098ZM400.516 172.562C400.529 175.461 401.787 177.402 404.043 177.402C406.354 177.402 407.57 175.365 407.57 172.562C407.57 169.801 406.381 167.818 404.043 167.805C401.76 167.818 400.529 169.678 400.516 172.562ZM416.02 180.219C414.844 180.219 413.873 179.262 413.887 178.086C413.873 176.938 414.844 175.994 416.02 175.98C417.154 175.994 418.125 176.938 418.125 178.086C418.125 179.262 417.154 180.219 416.02 180.219ZM428.078 180.273C424.209 180.246 420.354 177.949 420.367 170.648C420.367 163.881 423.443 159.93 428.297 159.93C432.111 159.93 434.736 162.322 435.188 165.535H431.66C431.305 164.018 430.102 163.006 428.297 163.02C425.426 163.006 423.826 165.549 423.812 169.719H424.004C425.016 168.01 426.916 166.998 429.09 167.012C432.645 166.998 435.393 169.691 435.379 173.438C435.393 177.375 432.453 180.301 428.078 180.273ZM424.195 173.547C424.223 175.611 425.836 177.389 428.078 177.402C430.279 177.389 431.92 175.693 431.934 173.52C431.92 171.414 430.334 169.719 428.133 169.719C425.904 169.719 424.223 171.482 424.195 173.547ZM445.688 180.273C440.916 180.273 438.072 176.582 438.086 170.102C438.072 163.648 440.943 159.93 445.688 159.93C450.432 159.93 453.289 163.648 453.289 170.102C453.289 176.596 450.445 180.273 445.688 180.273ZM441.668 170.102C441.668 174.859 443.199 177.279 445.688 177.293C448.162 177.279 449.707 174.859 449.707 170.102C449.693 165.385 448.162 162.896 445.688 162.883C443.213 162.896 441.682 165.385 441.668 170.102ZM457.254 171.441C458.17 170.443 459.305 169.924 460.562 169.938C462.75 169.924 464.65 171.482 466.824 171.469C468.068 171.482 469.189 170.949 470.051 169.91V172.891C469.135 173.889 468 174.408 466.742 174.395C464.555 174.408 462.641 172.85 460.48 172.863C459.236 172.85 458.129 173.383 457.254 174.422V171.441ZM481.727 180.273C477.857 180.246 474.002 177.949 474.016 170.648C474.016 163.881 477.092 159.93 481.945 159.93C485.76 159.93 488.385 162.322 488.836 165.535H485.309C484.953 164.018 483.75 163.006 481.945 163.02C479.074 163.006 477.475 165.549 477.461 169.719H477.652C478.664 168.01 480.564 166.998 482.738 167.012C486.293 166.998 489.041 169.691 489.027 173.438C489.041 177.375 486.102 180.301 481.727 180.273ZM477.844 173.547C477.871 175.611 479.484 177.389 481.727 177.402C483.928 177.389 485.568 175.693 485.582 173.52C485.568 171.414 483.982 169.719 481.781 169.719C479.553 169.719 477.871 171.482 477.844 173.547ZM499.445 180.273C495.576 180.246 491.721 177.949 491.734 170.648C491.734 163.881 494.811 159.93 499.664 159.93C503.479 159.93 506.104 162.322 506.555 165.535H503.027C502.672 164.018 501.469 163.006 499.664 163.02C496.793 163.006 495.193 165.549 495.18 169.719H495.371C496.383 168.01 498.283 166.998 500.457 167.012C504.012 166.998 506.76 169.691 506.746 173.438C506.76 177.375 503.82 180.301 499.445 180.273ZM495.562 173.547C495.59 175.611 497.203 177.389 499.445 177.402C501.646 177.389 503.287 175.693 503.301 173.52C503.287 171.414 501.701 169.719 499.5 169.719C497.271 169.719 495.59 171.482 495.562 173.547Z" fill="#784210"/>
</svg>
